<?xml version="1.0" encoding="UTF-8" standalone="no"?>
<!-- Created with Inkscape (http://www.inkscape.org/) -->

<svg
   xmlns:dc="http://purl.org/dc/elements/1.1/"
   xmlns:cc="http://creativecommons.org/ns#"
   xmlns:rdf="http://www.w3.org/1999/02/22-rdf-syntax-ns#"
   xmlns:svg="http://www.w3.org/2000/svg"
   xmlns="http://www.w3.org/2000/svg"
   xmlns:sodipodi="http://sodipodi.sourceforge.net/DTD/sodipodi-0.dtd"
   xmlns:inkscape="http://www.inkscape.org/namespaces/inkscape"
   width="297mm"
   height="210mm"
   viewBox="0 0 297 210"
   version="1.1"
   id="svg8"
   inkscape:version="0.92.4 (unknown)"
   sodipodi:docname="bibliobox-como-conectarse.svg">
  <defs
     id="defs2" />
  <sodipodi:namedview
     id="base"
     pagecolor="#ffffff"
     bordercolor="#666666"
     borderopacity="1.0"
     inkscape:pageopacity="0.0"
     inkscape:pageshadow="2"
     inkscape:zoom="0.35"
     inkscape:cx="744.93398"
     inkscape:cy="391.63722"
     inkscape:document-units="mm"
     inkscape:current-layer="layer1"
     showgrid="false"
     inkscape:window-width="1366"
     inkscape:window-height="704"
     inkscape:window-x="0"
     inkscape:window-y="27"
     inkscape:window-maximized="1" />
  <metadata
     id="metadata5">
    <rdf:RDF>
      <cc:Work
         rdf:about="">
        <dc:format>image/svg+xml</dc:format>
        <dc:type
           rdf:resource="http://purl.org/dc/dcmitype/StillImage" />
        <dc:title></dc:title>
      </cc:Work>
    </rdf:RDF>
  </metadata>
  <g
     inkscape:label="Capa 1"
     inkscape:groupmode="layer"
     id="layer1"
     transform="translate(0,-87)">
    <flowRoot
       xml:space="preserve"
       id="flowRoot815"
       style="font-style:normal;font-variant:normal;font-weight:normal;font-stretch:normal;font-size:40px;line-height:15.10000038px;font-family:'Nimbus Mono L';-inkscape-font-specification:'Nimbus Mono L';letter-spacing:0px;word-spacing:0px;fill:none;stroke:#000000;stroke-width:1.95917539;stroke-linecap:round;stroke-linejoin:round;stroke-opacity:1;stroke-miterlimit:4;stroke-dasharray:none;"
       transform="matrix(0.62526306,0,0,0.62526306,407.71756,109.22864)"><flowRegion
         id="flowRegion817"
         style="stroke-width:1.95917539;stroke-miterlimit:4;stroke-dasharray:none;stroke-linejoin:round;stroke-linecap:round;"><rect
           id="rect819"
           width="1100"
           height="322.85715"
           x="-520"
           y="-3.4420514"
           style="stroke-width:1.95917539;stroke-miterlimit:4;stroke-dasharray:none;stroke-linejoin:round;stroke-linecap:round;" /></flowRegion><flowPara
         id="flowPara821"
         style="font-style:normal;font-variant:normal;font-weight:normal;font-stretch:normal;font-family:'The Bold Font';-inkscape-font-specification:'The Bold Font';stroke-width:1.95917539;stroke-miterlimit:4;stroke-dasharray:none;stroke-linejoin:round;stroke-linecap:round;">bibliobox</flowPara></flowRoot>    <flowRoot
       xml:space="preserve"
       id="flowRoot823"
       style="font-style:normal;font-variant:normal;font-weight:normal;font-stretch:normal;font-size:40px;line-height:15.10000038px;font-family:'Nimbus Mono L';-inkscape-font-specification:'Nimbus Mono L';letter-spacing:0px;word-spacing:0px;fill:none;stroke:#000000;stroke-width:1px;stroke-linecap:butt;stroke-linejoin:miter;stroke-opacity:1"
       transform="matrix(0.25529461,0,0,0.25529461,78.370896,52.110076)"><flowRegion
         id="flowRegion825"><rect
           id="rect827"
           width="868.57141"
           height="248.57143"
           x="-88.571426"
           y="299.4151" /></flowRegion><flowPara
         id="flowPara829"
         style="font-style:normal;font-variant:normal;font-weight:normal;font-stretch:normal;font-family:Multicolore;-inkscape-font-specification:Multicolore;fill:#000000">biblioteca virtual colectiva</flowPara></flowRoot>    <g
       id="g973"
       transform="matrix(0.4100154,-0.14088619,0.14412676,0.40079652,192.90791,184.9706)">
      <path
         inkscape:export-ydpi="71.956253"
         inkscape:export-xdpi="71.956253"
         inkscape:export-filename="/home/bond/Escritorio/infografia_sl.png"
         d="m 57.866771,231.73071 c -0.18721,-0.54 -0.20233,-1.10448 -0.61431,-1.61233 -0.54359,-0.49598 -1.12824,-0.97133 -1.53557,-1.53548 -0.16092,-0.20377 -0.34563,-1.68731 -0.38377,-1.95781 -0.0735,-0.52239 -1.41808,-2.65409 -1.45885,-3.22474 0.0147,-1.17512 0.30672,-1.93763 0.0476,-3.52547 -0.5377,-1.10957 -1.33675,-1.41168 -2.0052,-2.1176 -0.94664,-0.60456 -1.51643,-1.24074 -2.03469,-1.88101 -0.63746,-0.84561 -0.73452,-1.77213 -0.65257,-2.72563 0.0921,-0.59627 0.67245,-1.12491 1.07521,-1.33008 0.56015,-0.23909 1.06788,-0.11554 1.72957,-0.50101 0.7594,-0.57824 1.70002,-1.79541 1.87211,-2.64992 0.0662,-0.5606 0.24767,-1.79038 -0.0147,-2.85823 -0.27937,-1.14073 -0.919,-3.15346 -2.66711,-5.40587 -1.69086,-2.17867 -5.9886,-6.41093 -7.86965,-7.98484 -1.88104,-1.57391 -5.87354,-5.87344 -6.75636,-7.63936 -0.883,-1.7658 -3.22474,-5.41276 -4.41485,-9.05979 -1.19001,-3.64681 -1.91934,-5.79656 -1.53545,-9.09806 0.3839,-3.30143 0.95974,-7.21698 2.84078,-9.44365 1.88105,-2.22654 1.42027,-3.37816 1.42027,-3.37816 0,0 -2.18805,0.077 -3.95391,1.6508 -1.76599,1.57391 -4.33793,4.10749 -4.79875,5.22074 -0.46062,1.11329 -0.65257,1.91944 -1.61217,2.41862 -0.95974,0.49892 -3.72379,3.30131 -4.14599,4.49139 -0.42235,1.19004 -0.30707,3.57017 -0.69106,4.64497 -0.38389,1.07495 -1.88101,2.80254 -2.64883,3.68533 -0.76779,0.88294 -1.38195,1.99629 -1.61235,3.22467 -0.23039,1.22851 -0.72934,4.56831 -0.72934,4.56831 0,0 -1.61233,0.80612 -2.11144,2.14982 -0.49896,1.34353 -0.80611,3.49341 -0.34559,4.79858 0.46065,1.3052 0.92129,3.3782 0.92129,3.3782 0,0 0.69104,4.14595 0.69104,4.2994 0,0.15378 -0.0763,0.95987 -0.0763,1.57394 0,0.61434 -0.30706,1.84278 0.2304,3.45505 0.53754,1.61244 0.883,3.14786 0.883,3.14786 0,0 -0.19188,0.46056 0.039,1.30517 0.23039,0.84461 1.30519,2.5338 2.45675,3.72382 1.15169,1.18995 2.91754,2.38012 3.72379,2.91747 0.80609,0.53748 5.10572,2.87908 5.10572,2.87908 0,0 -0.15368,0.92134 -0.11525,1.88105 0.039,0.95983 0.039,1.84281 0.72933,2.34176 0.69106,0.49915 3.6086,0.72952 3.6086,0.72952 0,0 -0.38389,0.30711 -0.72936,1.3819 -0.3456,1.07496 -0.84455,2.57214 -0.0763,3.33983 0.76779,0.76766 3.45508,1.45876 3.60857,1.42026 0.15339,-0.0386 0.42236,-0.0771 0.42236,-0.0771 0,0 -0.42236,0.99826 -0.26894,2.03473 0.15371,1.03653 0.11525,1.9961 1.38213,2.30321 1.26674,0.30707 3.53168,-0.1534 3.53168,-0.1534 0,0 -0.49896,0.80612 0.88297,1.49722 1.38197,0.69112 3.14782,0.57587 3.14782,0.57587 0,0 0.65257,1.0748 1.30533,1.30517 0.65261,0.23038 1.88105,0.3071 2.1113,-0.19185 0.2304,-0.49914 2.18821,-4.22281 2.68729,-4.79868 0.49895,-0.57581 1.3052,-0.69093 2.07299,-0.49905 0.76763,0.19201 4.45299,1.65064 5.75816,1.68916 1.30537,0.0386 1.65083,-0.26864 1.57407,-0.38383 v 0 z"
         id="path5567"
         style="fill:#ff5599;fill-opacity:1;stroke:none;enable-background:new"
         inkscape:connector-curvature="0" />
      <path
         inkscape:export-ydpi="71.956253"
         inkscape:export-xdpi="71.956253"
         inkscape:export-filename="/home/bond/Escritorio/infografia_sl.png"
         d="m 34.590744,153.67842 c -0.18971,-0.0325 -0.4147,0.0221 -0.85032,0.11996 -1.06656,0.2462 -3.48976,1.78322 -4.84092,3.06786 -0.53421,0.50824 -1.20093,1.33819 -1.47655,1.84518 -0.27537,0.50708 -0.81746,1.19437 -1.20712,1.52693 -0.87955,0.75021 -1.38485,1.39407 -1.70694,2.17114 -0.13674,0.33016 -0.56735,0.83059 -0.95416,1.11252 -1.04857,0.76507 -2.68611,2.55469 -3.52893,3.85781 -0.59083,0.91327 -0.83305,1.50989 -1.16238,2.88885 -0.27357,1.14636 -0.35962,1.82487 -0.25304,1.98175 0.2664,0.39331 -0.0721,1.63972 -0.58622,2.14947 -0.25776,0.25602 -1.13587,1.32355 -1.9483,2.37366 l -1.47742,1.90855 -0.48671,2.74692 -0.49262,2.74589 -0.69969,0.60031 c -1.048,0.90312 -1.44269,1.60978 -1.7297,3.10398 -0.28976,1.50919 -0.0216,3.89941 0.61444,5.44591 0.19547,0.47676 0.36158,1.31557 0.37066,1.86461 0.0179,0.54904 0.18106,1.70636 0.37957,2.57214 0.23256,1.00857 0.33155,2.06604 0.27324,2.94486 -0.14252,2.13495 0.0705,4.15732 0.58621,5.56189 0.33875,0.91967 0.43789,1.48546 0.34057,1.99165 -0.10666,0.55429 -0.0216,0.92595 0.3895,1.70626 0.74174,1.40697 1.20511,1.98663 2.55712,3.19275 1.87313,1.67152 2.14324,1.84931 5.24239,3.54632 l 2.93035,1.61003 -0.13094,1.25883 c -0.15512,1.51569 -0.0662,2.01301 0.50385,2.91969 l 0.43314,0.6966 1.67008,0.27998 1.66332,0.28491 -0.43645,1.94073 -0.44195,1.93988 0.53441,0.68113 c 0.62941,0.81003 1.43794,1.24666 2.80478,1.5105 l 1.00307,0.1988 -0.0324,1.22018 c -0.0605,2.35288 1.46503,3.66276 3.85466,3.30307 0.81202,-0.12293 0.83389,-0.11557 1.44918,0.52694 0.92506,0.96448 1.58326,1.2744 2.96868,1.40903 0.93024,0.0904 1.32621,0.2092 1.68536,0.50315 0.55569,0.45495 0.94449,0.55304 1.88075,0.47685 1.01936,-0.083 1.46058,-0.58308 2.4167,-2.73478 0.95804,-2.15555 1.29441,-2.57643 2.22721,-2.77123 0.83334,-0.17366 1.63079,0 3.42934,0.69894 1.95995,0.7717 4.43195,1.15553 5.04366,0.78358 0.24228,-0.14817 0.46526,-0.40212 0.49607,-0.56419 0.0647,-0.34383 -0.54359,-1.22668 -1.76986,-2.56144 -0.48083,-0.52326 -0.88733,-1.08901 -0.90302,-1.26091 -0.0179,-0.17184 -0.0476,-0.67227 -0.0776,-1.10797 -0.0324,-0.52932 -0.31104,-1.20712 -0.83363,-2.04594 -0.76475,-1.22751 -0.77673,-1.28128 -0.61933,-2.46764 0.28946,-2.18287 -0.1645,-3.32872 -1.82126,-4.58442 -2.22289,-1.68579 -2.95859,-2.75022 -2.76476,-4.00787 0.15119,-0.98749 0.45358,-1.30693 1.63104,-1.74603 2.09288,-0.78018 3.19707,-2.71243 3.1036,-5.43761 -0.0403,-1.13663 -0.82466,-3.24875 -1.77361,-4.77184 -0.85637,-1.37492 -5.84245,-6.78515 -8.1045,-8.79371 -2.68224,-2.38099 -4.09616,-3.90225 -6.00801,-6.45864 -2.22955,-2.98104 -2.41429,-3.28116 -3.7814,-6.2452 -3.61305,-7.83231 -4.23629,-11.12759 -3.16187,-16.7298 0.53046,-2.76694 1.08597,-3.95432 3.32244,-7.09046 1.89817,-2.66193 1.91848,-2.73805 0.88557,-3.52636 -0.2869,-0.21927 -0.44048,-0.33288 -0.63012,-0.36395 z m -1.59735,2.95578 c 0.21888,0.0386 -0.11378,0.79866 -0.90002,2.06595 -1.05952,1.70946 -2.23323,4.90397 -2.47184,6.72763 -0.70012,5.34797 0.60364,10.82619 4.25612,17.92923 2.45678,4.77713 3.4708,5.95485 12.46446,14.43819 2.23644,2.10978 2.97774,2.94825 4.24481,4.79519 1.67497,2.44209 2.29818,4.07675 2.32828,6.09908 0.0179,0.892 -0.0476,1.14742 -0.48211,1.88002 -0.61587,1.0413 -1.49571,1.71452 -2.0891,1.60026 -1.57737,-0.30265 -2.94191,2.54149 -2.09259,4.35907 0.48787,1.04389 1.04367,1.6646 2.81933,3.12162 1.86173,1.5279 2.02287,1.87349 1.76655,3.87404 l -0.20517,1.58032 0.68917,0.93066 c 0.71105,0.9622 1.30867,2.6438 1.17833,3.32129 -0.0821,0.42168 0.21958,0.87023 0.88157,1.31468 0.75066,0.50443 1.53602,1.65618 1.39864,2.05602 -0.11941,0.34857 -0.22393,0.3478 -2.17796,-0.0474 -1.60862,-0.32533 -2.25991,-0.53985 -3.03016,-0.99842 -1.04902,-0.62426 -2.49147,-0.99432 -3.11452,-0.80074 -0.54677,0.16998 -1.51111,1.48757 -2.34631,3.21145 -0.90619,1.87019 -1.3713,2.46454 -2.09964,2.67996 -0.70819,0.20949 -0.59585,0.24321 -1.12014,-0.37128 l -0.44541,-0.51362 0.45419,-1.09881 c 0.64078,-1.55358 2.076,-4.1749 2.3424,-4.27629 0.15509,-0.0592 0.16271,0.0415 0.0179,0.32196 -0.92214,1.8089 -0.59758,2.03822 0.72248,0.51481 1.06656,-1.23107 1.49279,-1.55274 1.05561,-0.79793 -0.16812,0.29154 -0.29628,0.68018 -0.28763,0.86444 0.0218,0.44272 1.70578,-1.84886 2.05112,-2.78769 l 0.25413,-0.69167 -0.51967,0.38624 c -0.91727,0.68043 -1.31801,0.72231 -2.12512,0.22246 -0.94619,-0.5859 -1.05696,-0.83645 -0.85378,-1.93993 0.13956,-0.76417 0.29881,-1.05869 0.88429,-1.62342 0.68485,-0.66019 0.70733,-0.7098 0.51135,-1.18608 -0.17926,-0.43292 -0.25237,-0.47599 -0.56851,-0.32337 -0.20014,0.0963 -0.75683,0.37422 -1.23997,0.61213 -1.02023,0.50292 -1.26934,0.48236 -1.95175,-0.13783 -1.04886,-0.95244 -0.89492,-1.78632 0.63505,-3.48749 0.63749,-0.70858 0.90776,-1.1384 0.81256,-1.27853 -0.23041,-0.33983 -0.80161,-0.16457 -1.3884,0.42168 -0.80167,0.79982 -1.52684,0.61104 -2.39803,-0.61676 -0.57151,-0.80564 -0.64206,-1.02385 -0.51967,-1.66192 0.12383,-0.64267 0.28943,-0.84477 1.32695,-1.60785 0.65199,-0.47939 1.21044,-1.00268 1.24112,-1.16164 0.0647,-0.34118 -0.56924,-0.50386 -1.6321,-0.41749 -0.56604,0.0462 -0.778,-0.0179 -1.04946,-0.28846 -0.52701,-0.54347 -1.06067,-1.97757 -0.95096,-2.54867 0.15153,-0.79232 0.98452,-1.72608 1.82145,-2.04507 0.64309,-0.24488 0.94824,-0.24411 2.05685,0.0179 1.53776,0.35706 1.72368,0.0934 0.40564,-0.57568 -1.43708,-0.73115 -2.03585,-1.94384 -1.62169,-3.27345 0.26711,-0.85748 1.03131,-1.52168 1.97218,-1.71525 0.46975,-0.0963 0.6666,-0.0428 1.20254,0.33512 0.3528,0.24843 0.74691,0.6216 0.87551,0.83331 0.28296,0.46606 0.55381,0.39984 0.66167,-0.16268 0.11525,-0.59778 -0.92029,-1.8936 -1.74367,-2.18594 -1.874,-0.6656 -6.52454,-5.0118 -8.63183,-8.06777 -1.86577,-2.70558 -2.36773,-4.21109 -2.14613,-6.44557 0.0836,-0.83677 0.10949,-1.58611 0.0591,-1.66076 -0.28545,-0.42101 -0.55077,0.60018 -0.95022,3.65302 -0.0793,0.60236 -0.1108,0.62592 -0.72677,0.56043 -0.48916,-0.0519 -0.83187,-0.25272 -1.40326,-0.82485 -0.78867,-0.78921 -2.22446,-3.09286 -2.01686,-3.23364 0.0648,-0.0442 0.51971,0.12444 1.00874,0.3788 1.0729,0.55647 0.98983,0.54033 1.04901,0.23054 0.0253,-0.13924 -0.2329,-0.41182 -0.57814,-0.60281 -1.45466,-0.80519 -2.21902,-1.65941 -3.05464,-3.43302 -0.44826,-0.95112 -0.79545,-1.82177 -0.77457,-1.93052 0.0253,-0.13033 0.29304,-0.11106 0.77675,0.0504 l 0.73855,0.2517 -0.83936,-0.6299 c -0.89524,-0.67008 -1.53359,-1.80783 -2.14283,-3.813 -0.3839,-1.26415 -0.18289,-1.52937 0.62538,-0.81688 0.97373,0.85873 1.26806,0.59714 0.34198,-0.30464 -0.48512,-0.47244 -0.97012,-1.1822 -1.16952,-1.71122 -0.33375,-0.88612 -0.67451,-4.67735 -0.4359,-4.83929 0.0662,-0.0442 0.45674,0.23944 0.86728,0.63531 0.41041,0.39571 0.78969,0.65023 0.84096,0.5606 0.0519,-0.0904 -0.17568,-0.60892 -0.50126,-1.15485 -0.32542,-0.54594 -0.70963,-1.47298 -0.85476,-2.05567 -0.25811,-1.03644 -0.24946,-1.09971 0.29878,-2.9105 0.30815,-1.01837 0.70028,-2.06812 0.8709,-2.33747 l 0.30816,-0.49053 0.18289,0.82213 c 0.27648,1.2352 0.52012,1.08601 0.82613,-0.50654 0.22932,-1.19527 0.37538,-1.5393 1.0022,-2.35867 0.9835,-1.28532 2.11677,-2.16167 3.34854,-2.58501 0.55928,-0.19218 1.08674,-0.33407 1.17183,-0.31854 z m -8.91867,8.00587 -0.0922,0.72286 c -0.42664,3.24943 -0.51896,6.57229 -0.23687,8.79368 0.0633,0.49632 0.0648,0.9965 0,1.11098 -0.0633,0.11554 -0.20232,-0.39069 -0.30489,-1.12328 -0.27073,-1.93462 -0.52733,-0.96499 -0.29558,1.11796 0.51007,4.58634 2.22866,10.18544 4.32022,14.07133 0.82482,1.53254 1.04198,2.1194 0.85563,2.32207 -0.21888,0.23838 -0.92518,-0.78226 -2.13835,-3.08342 -0.53091,-1.00723 -1.01808,-1.7388 -1.08187,-1.62502 -0.1663,0.29551 1.1357,3.19288 2.37109,5.27423 0.57885,0.97478 1.03218,1.88498 1.00595,2.02114 -0.0533,0.2739 -0.0288,0.29228 -1.14637,-1.01837 -1.10057,-1.28989 -0.92547,-0.628 0.3593,1.35334 0.63547,0.97981 1.08658,1.85446 1.00323,1.9455 -0.15695,0.17165 -0.92131,0.0592 -1.35648,-0.19707 -0.40608,-0.23895 -2.93207,-4.00972 -2.87722,-4.2954 0.0403,-0.20415 0.0865,-0.20809 0.22176,0 0.0936,0.13924 0.41816,0.30236 0.71783,0.35776 l 0.54805,0.0993 -0.37999,-0.4317 c -0.20882,-0.23819 -0.7845,-0.76264 -1.28016,-1.16549 -0.49562,-0.40307 -1.13756,-1.12011 -1.42385,-1.59238 -0.53479,-0.88256 -1.29524,-2.66014 -1.17403,-2.74209 0.039,-0.0247 0.42062,0.15333 0.85438,0.40131 0.43327,0.247 0.84768,0.41038 0.91958,0.36177 0.0718,-0.0474 0.0992,-0.11701 0.0647,-0.14977 -2.2,-2.04991 -2.74475,-2.74929 -3.20367,-4.1327 -0.6559,-1.97718 -0.6706,-2.18088 -0.18791,-1.97394 0.21311,0.0904 0.66096,0.35366 0.99819,0.58519 0.79357,0.54462 0.83908,0.27854 0.0836,-0.49313 -0.56979,-0.58151 -1.00639,-1.32195 -1.44819,-2.459 -0.23866,-0.61494 -0.4635,-4.65547 -0.2664,-4.78897 0.0721,-0.0474 0.49217,0.28042 0.93483,0.7348 0.44281,0.45438 0.84413,0.80132 0.89396,0.76753 0.0504,-0.0325 -0.0865,-0.39555 -0.3024,-0.80416 -0.73154,-1.38696 -1.10016,-2.41878 -1.19216,-3.34156 -0.0807,-0.81169 -0.0253,-1.07291 0.45086,-2.22725 0.59326,-1.43839 1.1242,-2.11898 2.72197,-3.48028 l 1.06487,-0.90636 z m -0.19367,11.34173 c 0.0849,0.0386 0.38332,1.06564 0.69106,2.39464 0.8065,3.48121 2.02345,6.65362 3.98599,10.3917 0.39139,0.7453 0.69548,1.43835 0.67579,1.54127 -0.0735,0.38627 -0.4163,0.31396 -0.61731,-0.13033 -2.24999,-4.97734 -3.2103,-7.43167 -4.00015,-10.2557 -0.63128,-2.25671 -0.89867,-3.66916 -0.74777,-3.93844 0,0 0,0 0.0179,0 z m -5.93846,0.0179 c 0.0179,0 0.0179,0 0.0253,0.0179 0.10946,0.0607 0.33945,1.1311 0.51523,2.37821 0.45386,3.21868 0.88413,4.98854 2.00744,8.25319 1.05292,3.06052 1.4731,3.89594 3.66345,7.31 1.46491,2.28294 1.67642,2.9789 0.44698,1.46859 -2.24377,-2.75669 -4.84841,-7.5514 -5.881,-10.82514 -0.53427,-1.69438 -0.74867,-1.48402 -0.29954,0.29526 0.77371,3.06546 2.19122,6.02517 4.7184,9.86126 1.45292,2.20564 1.80572,2.91543 1.42096,2.84133 -0.069,-0.0179 -0.73339,-0.90414 -1.47684,-1.97849 -0.74345,-1.07438 -1.40874,-1.91316 -1.48159,-1.86398 -0.21382,0.1452 0.49319,1.40057 1.66489,2.95777 1.05696,1.40453 1.37661,2.07859 1.26373,2.6666 -0.0288,0.15512 0.12681,1.10743 0.34595,2.11421 0.21888,1.00681 0.35494,1.89664 0.30816,1.97987 -0.0965,0.1717 -0.96076,-0.6486 -2.08062,-1.96726 -1.16913,-1.37658 -1.36252,-1.85834 -0.68616,-1.72855 0.19621,0.0372 0.3724,-0.0179 0.39139,-0.11115 0.0179,-0.0978 -0.10504,-0.2102 -0.27719,-0.24402 -0.55324,-0.10961 -1.96815,-1.2423 -2.61643,-2.09909 l -0.62698,-0.83193 0.80381,0.0637 c 0.4425,0.0325 0.81717,0 0.83257,-0.0889 0.0179,-0.08 -0.51218,-0.48663 -1.17445,-0.90251 -0.66237,-0.41582 -1.30043,-0.87539 -1.41821,-1.01853 -0.36189,-0.44013 -1.74497,-3.29167 -1.63251,-3.36814 0.0591,-0.0386 0.3751,0.10369 0.70214,0.3202 1.42788,0.94677 1.43723,0.40532 0.0179,-0.80119 -1.05364,-0.89412 -1.52436,-1.72951 -1.95162,-3.45255 -0.61701,-2.48831 -0.59571,-4.04134 0.0476,-3.25946 0.10222,0.12448 0.39441,0.35572 0.648,0.51218 l 0.46007,0.28491 -0.46225,-0.87541 c -0.91308,-1.72711 -0.91509,-3.48458 0,-5.50871 0.51754,-1.15306 1.49198,-2.44638 1.78989,-2.39226 z m 16.55989,12.41903 c -0.12239,-0.0325 -0.14756,0.31187 -0.0865,1.03022 0.0504,0.60104 0.29881,1.22444 0.80279,1.99373 0.40263,0.6153 0.82886,1.13705 0.9459,1.1596 0.36046,0.0711 0.32113,-0.40952 -0.0778,-0.95779 -0.2077,-0.28657 -0.63316,-1.18428 -0.9466,-1.99821 -0.30205,-0.78368 -0.51641,-1.19485 -0.63794,-1.22755 z m -20.79979,-2.47911 c 0.0979,-0.0179 0.48932,1.06801 0.86947,2.39998 0.38031,1.332 0.96854,3.08486 1.30448,3.90084 0.71293,1.73163 2.5528,4.87378 4.00429,6.83171 1.33329,1.7982 4.27661,5.04571 5.69901,6.28943 0.62077,0.54238 1.10618,1.10845 1.07826,1.25406 -0.0446,0.22637 -0.12682,0.20741 -0.57383,-0.14516 -1.37216,-1.08059 -3.71226,-3.27092 -4.85446,-4.54221 -1.3314,-1.48165 -4.02734,-5.31758 -5.09839,-7.2499 -0.34668,-0.62589 -0.70185,-1.09673 -0.78335,-1.04162 -0.34414,0.23336 0.65361,2.18149 2.55279,4.99105 2.05715,3.04304 4.00243,5.33481 6.09054,7.17455 1.09077,0.96114 1.36998,1.38548 0.852,1.28605 -0.35564,-0.0682 -1.51898,-0.97997 -2.89736,-2.26324 -0.68152,-0.6341 -1.30072,-1.10471 -1.37732,-1.05126 -0.20053,0.13927 0.96752,1.51069 2.4452,2.87047 1.26315,1.1624 1.27267,1.17899 1.29137,2.1917 0.0179,0.5613 0.0476,1.17304 0.0849,1.35868 0.0936,0.44563 -0.0662,0.39363 -1.08546,-0.34163 -0.87148,-0.62944 -1.01242,-0.91333 -0.50123,-1.00463 0.61629,-0.11105 0.29951,-0.38232 -0.79402,-0.68456 -0.86443,-0.23899 -1.3134,-0.4849 -1.84476,-0.99659 l -0.70374,-0.673 0.71946,-0.19157 c 0.55897,-0.14666 0.66798,-0.23258 0.49246,-0.39721 -0.12387,-0.11702 -0.44724,-0.25776 -0.72101,-0.31169 -0.2736,-0.0533 -0.78364,-0.31719 -1.1308,-0.58752 -0.34703,-0.26993 -0.73599,-0.51395 -0.86213,-0.54136 -0.3993,-0.0859 -1.62213,-1.94413 -1.54538,-2.34471 0.0179,-0.0904 0.44655,-0.08 0.95702,0.0179 1.20308,0.23105 1.02769,-0.0247 -0.71324,-1.0452 -1.61636,-0.94654 -2.2475,-1.62223 -3.03504,-3.23246 -0.55768,-1.1406 -0.88888,-2.60057 -0.62955,-2.77629 0.0633,-0.0414 0.38044,0.18459 0.70127,0.50488 0.50255,0.50341 1.21607,0.86787 1.2594,0.64124 0.0179,-0.04 -0.31859,-0.4261 -0.72647,-0.85704 -0.91352,-0.96505 -1.93733,-3.14414 -2.15507,-4.5905 -0.29196,-1.93616 0.64511,-4.71507 1.62948,-4.84146 z m 17.7286,5.58014 c 0.37138,0.08 0.8182,0.26384 1.36451,0.54529 0.75742,0.39053 1.08879,0.73455 1.91835,1.99985 1.54596,2.35851 4.2069,5.28044 6.82134,7.49421 1.74869,1.48098 1.40828,1.86324 -0.44945,0.50382 -0.87087,-0.63701 -1.69297,-1.37261 -3.62814,-3.24796 -0.31392,-0.30415 -0.35785,-0.30595 -0.40695,-0.0504 -0.0849,0.44622 0.68642,1.34428 2.60548,3.02854 0.97043,0.85127 1.77998,1.65246 1.79769,1.78564 0.0461,0.34698 -0.68818,-0.16635 -2.9829,-2.08858 -1.04761,-0.87731 -1.98026,-1.60664 -2.07159,-1.62425 -0.54961,-0.1052 2.50774,3.15416 3.93748,4.19818 0.36116,0.26425 0.58494,0.56825 0.54923,0.7536 -0.0476,0.25776 -0.50183,0 -2.63029,-1.45401 -1.41491,-0.97117 -2.62433,-1.72996 -2.68367,-1.68993 -0.19835,0.13478 0.59239,0.85018 2.69952,2.45074 1.61349,1.22552 2.09102,1.68788 2.10989,2.02524 0.0403,0.71819 -0.27614,0.72738 -1.4276,0.0548 -1.86234,-1.08668 -3.87455,-2.77731 -6.1408,-5.16516 -1.4626,-1.54134 -2.4664,-3.15659 -2.91149,-4.68961 -0.31105,-1.07127 -0.34957,-3.13702 -0.0705,-3.84916 0.33118,-0.84592 0.78306,-1.16093 1.6001,-0.98266 z m -0.14593,2.17595 c 0,0 -0.0179,0 -0.0179,0 -0.10667,0.0282 -0.30563,0.62756 -0.44108,1.33261 -0.28549,1.48668 -0.1412,1.93228 1.05564,3.26868 0.89281,0.99707 1.13471,0.82091 0.44323,-0.31963 -0.77412,-1.27705 -0.89553,-1.69585 -0.8814,-3.06167 0,-0.66919 -0.0605,-1.18621 -0.15874,-1.22233 z m 0.68588,1.2482 c -0.22247,0 -0.16419,0.43004 0.15694,1.07726 0.414,0.83187 0.54677,0.88637 0.50946,0.20805 -0.0288,-0.53943 -0.36503,-1.22728 -0.6225,-1.27663 -0.0179,0 -0.0288,0 -0.0446,0 z m -4.31837,3.05799 c 0.0849,0.0179 0.17354,0.0325 0.26784,0.0519 1.3232,0.25427 1.49184,0.38018 2.77254,2.10031 0.96967,1.30264 1.96988,2.30267 3.98917,3.9883 1.27094,1.06135 4.0063,3.06072 4.94519,3.61687 0.30781,0.18275 0.34271,0.56902 0.0461,0.51211 -0.2837,-0.0533 -2.29245,-1.32217 -4.09731,-2.58027 -1.57708,-1.09923 -2.02855,-1.297 -1.84147,-0.80503 0.10949,0.28696 2.48209,2.21405 3.77404,3.062 1.12232,0.73691 1.42503,1.02865 1.21534,1.17057 -0.14948,0.10222 -2.44462,-1.02458 -3.40973,-1.67305 -1.09007,-0.73231 -1.60398,-0.92502 -1.66143,-0.62577 -0.0575,0.30134 1.10387,1.17929 2.98956,2.2636 1.48098,0.85137 1.81783,1.18915 1.57746,1.57564 -0.19367,0.31245 -0.12963,0.32791 -2.50886,-0.58042 -2.70212,-1.03083 -3.48489,-1.46129 -5.63826,-3.11318 -2.81328,-2.15849 -3.41432,-2.92016 -3.98222,-5.01666 -0.35245,-1.30107 -0.43158,-1.94567 -0.31213,-2.6227 0.21888,-1.23895 0.59054,-1.53004 1.87396,-1.32352 z m -4.89059,-0.5286 c 0,0 -0.0179,0 -0.0179,0 -0.0793,0.0534 0.16057,0.54506 0.53092,1.09128 0.37009,0.54635 0.73785,0.94594 0.81777,0.89185 0.0793,-0.0533 -0.15512,-0.54398 -0.52518,-1.09004 -0.34703,-0.51231 -0.69666,-0.8994 -0.80452,-0.90094 z m 4.45485,2.13425 c -0.0705,-0.0179 -0.17533,0.0414 -0.31533,0.13626 -0.98308,0.66653 0.18464,3.93709 1.78212,4.99927 0.31569,0.20975 0.60463,0.36132 0.64079,0.33689 0.0373,-0.0247 -0.41589,-0.75691 -1.0064,-1.62791 -1.04716,-1.54512 -1.07153,-1.60881 -0.99015,-2.7066 0.0591,-0.79273 0.0461,-1.11431 -0.1108,-1.13778 z m 1.16309,2.16724 c -0.0324,-0.0179 -0.0519,0 -0.0575,0.0282 -0.0253,0.13036 0.1515,0.52294 0.39225,0.87939 0.24155,0.35648 0.50587,0.60338 0.58234,0.55144 0.0776,-0.0519 -0.10372,-0.44746 -0.3976,-0.88061 -0.22032,-0.32462 -0.42178,-0.54369 -0.51938,-0.57972 z m 14.66747,3.29704 c -0.0218,0 -0.0476,0 -0.0705,0 -0.35674,0.0637 -0.53668,0.7766 -0.28872,1.14208 0.25775,0.38024 0.4349,0.35568 0.76003,-0.10373 0.23938,-0.33733 0.252,-0.47365 0.0634,-0.75158 -0.11083,-0.16412 -0.30566,-0.28427 -0.46456,-0.29154 z m -29.18103,-4.44162 c 0.0994,0 0.22824,0.20193 0.49175,0.66134 1.11066,1.93433 3.10675,4.61464 4.37468,5.86723 1.73213,1.71123 4.8756,4.15226 6.40314,4.97254 1.16235,0.62442 1.87153,1.20164 1.65599,1.34769 -0.35822,0.24271 -6.8264,-4.19696 -8.43829,-5.79149 -0.74348,-0.73526 -0.67562,-0.29664 0.12384,0.79894 0.98077,1.34338 3.1239,3.21197 5.13281,4.47999 2.43514,1.53728 2.50412,1.58813 2.38692,1.66738 -0.0965,0.0652 -1.3356,-0.417 -2.06723,-0.80192 -0.59845,-0.31469 -0.32257,0.1588 0.48758,0.83424 0.71912,0.59941 0.78435,0.70813 0.45489,0.7641 -0.32977,0.0548 -0.28081,0.13482 0.34989,0.58798 0.4025,0.28952 0.82597,0.54981 0.94292,0.57367 0.42002,0.0889 0.36747,0.48057 -0.1123,0.82853 -0.58366,0.42284 -0.55858,0.42818 -2.04001,-0.40323 -0.64328,-0.36132 -1.71734,-0.937 -2.38621,-1.27972 -1.14451,-0.58676 -2.26968,-1.66988 -1.84073,-1.77104 1.04931,-0.24732 0.91266,-0.48044 -0.56332,-0.9526 -0.62452,-0.19972 -1.46042,-0.58666 -1.85382,-0.85924 -0.73237,-0.50799 -2.95699,-3.43478 -2.72932,-3.59042 0.0705,-0.0474 0.47172,0.12451 0.8932,0.37977 0.42149,0.25526 0.8421,0.40948 0.93413,0.34739 0.16631,-0.11263 -0.0936,-0.48717 -1.46129,-2.12026 -0.3891,-0.46507 -0.83261,-1.175 -0.98696,-1.57808 -0.62728,-1.63792 -0.79748,-4.07498 -0.33337,-4.80178 0.069,-0.10661 0.12237,-0.16796 0.18107,-0.16268 z m 14.79651,7.08216 c 0.11231,0.0224 0.21382,0.0504 0.2959,0.0844 0.26714,0.11855 1.12206,0.58596 1.90093,1.03601 1.8079,1.04457 4.37248,2.21403 5.824,2.65729 1.26328,0.3861 1.6898,0.66477 1.35602,0.89127 -0.2304,0.15512 -2.84424,-0.56322 -4.16443,-1.14726 -0.89837,-0.39716 -1.16683,-0.46104 -1.20208,-0.27716 -0.0561,0.28222 1.77348,1.19658 3.71543,1.85898 1.70091,0.58026 2.40273,0.98192 2.33651,1.32806 -0.0476,0.24409 -0.35136,0.20572 -2.41209,-0.27239 -1.31414,-0.30463 -2.5207,-0.67287 -2.72056,-0.83481 -0.1973,-0.16056 -0.4621,-0.27319 -0.58782,-0.25173 -0.12518,0.0224 0.2117,0.35545 0.74781,0.74524 0.87852,0.63925 1.21416,0.76676 3.43807,1.285 2.39425,0.55823 3.0326,0.87791 2.17409,1.08872 -0.1915,0.0457 -2.1185,-0.22781 -4.2841,-0.61449 -3.76148,-0.67156 -4.00008,-0.73734 -5.33555,-1.43573 -1.65742,-0.86648 -2.47847,-1.48072 -3.16665,-2.36668 -0.85809,-1.10438 -1.02468,-2.61594 -0.38031,-3.41089 0.27576,-0.34063 1.67889,-0.52002 2.46499,-0.36535 z m 12.12752,3.20847 c -0.0706,0 -0.14756,0 -0.23076,0 -0.34383,0.0179 -0.50257,0.14814 -0.55928,0.44221 -0.0431,0.22711 -0.0373,0.4742 0.0179,0.55243 0.21634,0.31895 0.77685,0.24619 1.05061,-0.14078 0.3283,-0.46231 0.20662,-0.79981 -0.27578,-0.85108 z m -14.27913,-1.49289 c -0.0179,0 -0.0253,0 -0.0253,0.0179 -0.0763,0.39167 0.30707,1.3077 0.81487,1.96132 0.46497,0.59852 0.8637,0.86469 2.14341,1.42974 0.18791,0.083 0.5737,0.20819 0.8611,0.27544 0.71108,0.16636 0.47363,-0.11852 -0.81947,-0.973 -0.58737,-0.38834 -1.49356,-1.19917 -2.01481,-1.79855 -0.4562,-0.52445 -0.85322,-0.89745 -0.95848,-0.91308 z m 1.63924,0.49994 0.37413,0.40151 c 0.20626,0.22237 0.44109,0.51676 0.52198,0.65558 0.17715,0.30412 0.75687,0.45732 0.80394,0.21244 0.0476,-0.24875 -0.58103,-0.81169 -1.1848,-1.06058 l -0.51525,-0.20879 z m 10.58012,6.86831 c 0.2178,0.0443 0.16451,0.12442 -0.0179,0.26993 -0.1515,0.12444 -0.37368,0.20562 -0.49783,0.18292 -0.12383,-0.0247 -0.47734,0.0285 -0.78662,0.12002 -0.3096,0.0919 -0.92794,0.10961 -1.37146,0.0325 -0.44323,-0.0771 -0.97975,-0.10228 -1.19245,-0.0563 -0.38632,0.0844 -0.38632,0.0844 -0.0323,0.17923 0.79155,0.21052 3.24946,0.59259 3.66775,0.57139 0.94491,-0.0474 0.10667,0.32001 -1.09263,0.47853 -2.0468,0.27065 -1.42945,0.75629 0.77903,0.61228 1.34046,-0.0859 1.30405,-0.0977 1.01475,0.25855 -0.33266,0.41032 -2.46022,1.01152 -5.30404,1.50366 -2.94909,0.51025 -3.06988,0.54967 -4.6776,1.40402 -0.71611,0.38044 -1.31542,0.68165 -1.33185,0.66964 -0.0179,-0.0179 -0.22426,-0.12451 -0.46078,-0.25052 -0.84833,-0.44624 -1.10794,-0.78358 -1.26188,-1.65393 -0.14977,-0.84843 -0.13674,-0.92163 0.36302,-1.79881 0.67335,-1.18326 1.95623,-2.16458 3.33602,-2.55261 1.30158,-0.36589 2.43918,-0.41758 4.41165,-0.19969 0.7976,0.0889 2.07414,0.16418 2.83678,0.16802 0.90731,0 1.39605,0.0179 1.61377,0.0607 z m 2.60794,0.5182 c -0.31821,-0.0282 -0.41284,0.30237 -0.2329,0.88074 0.10222,0.32074 0.18288,0.35923 0.43183,0.22176 0.44842,-0.2469 0.41746,-0.90802 -0.0476,-1.06814 -0.0547,-0.0179 -0.10369,-0.0325 -0.14945,-0.0358 z m -1.1756,3.3203 c 0.0179,0 0.0253,0 0.0253,0.0179 0.13543,0.19838 -0.40593,0.46001 -2.12468,1.0323 -0.78854,0.26282 -1.4551,0.58968 -1.48175,0.72802 -0.0647,0.33688 0.1793,0.3649 1.04819,0.11554 1.14361,-0.32975 2.19983,-0.52547 2.06937,-0.38354 -0.0648,0.0711 -0.62064,0.34918 -1.23536,0.61897 -1.07883,0.47318 -1.39692,0.74963 -0.96953,0.83187 0.35459,0.0681 3.07045,-0.71636 3.10487,-0.89617 0.0179,-0.0934 0.19297,-0.13629 0.38925,-0.0978 0.1962,0.0372 0.33983,0.1588 0.31751,0.27515 -0.0533,0.27716 -1.75145,1.33744 -3.15471,1.96811 -0.61414,0.27614 -2.03037,1.17378 -3.14795,1.99303 -1.11729,0.81909 -2.30842,1.59376 -2.6438,1.71926 -0.64639,0.24188 -0.98049,0.20816 -1.86664,-0.19037 -1.30635,-0.5883 -1.72896,-1.6809 -1.22444,-3.17411 0.62542,-1.85018 1.73419,-2.67449 4.00374,-2.98544 0.58622,-0.0785 2.35508,-0.49347 3.93703,-0.92146 1.4829,-0.40132 2.75368,-0.67659 2.952,-0.64207 z m -12.06975,-0.88935 c -0.37124,-0.0726 -0.35136,0.24194 0.039,0.64367 0.21456,0.22105 0.3839,0.29231 0.44468,0.18474 0.13241,-0.23688 -0.1793,-0.76897 -0.48314,-0.82748 z m 15.95583,3.06443 c -0.31895,-0.0179 -0.62423,0.31111 -0.47288,0.53421 0.10651,0.15705 0.10221,0.15705 0.47432,0.0904 0.42409,-0.0771 0.46873,-0.53482 0.0605,-0.6135 -0.0215,0 -0.0403,-0.0179 -0.0633,-0.0179 z m -17.11315,-2.73139 c -0.15694,-0.0285 0.039,0.67268 0.31069,1.12431 0.27969,0.46324 1.08645,0.78812 1.14896,0.46341 0.0288,-0.1467 -1.26373,-1.54993 -1.45958,-1.58772 z m 14.73287,4.13142 c 0.1123,0.0247 -0.55196,0.5188 -1.47887,1.10425 -1.61032,1.01703 -1.65221,1.06308 -0.91884,0.92829 0.42206,-0.0771 0.99589,-0.24574 1.2751,-0.37397 1.07422,-0.49296 1.05609,-0.39923 -0.0547,0.2845 -2.16083,1.33037 -0.74217,1.16119 1.59837,-0.19051 0.55051,-0.3178 1.03378,-0.53011 1.07381,-0.47058 0.0403,0.0593 -0.43373,0.57309 -1.05293,1.1457 -1.88854,1.74513 -2.81487,2.81493 -4.01782,4.62547 -0.63358,0.95387 -1.25855,1.81965 -1.38786,1.926 -0.13094,0.1067 -0.5711,0.216 -0.97876,0.24619 -0.40736,0.0282 -0.8415,0.0726 -0.9662,0.0919 -0.35354,0.0578 -1.20699,-0.85348 -1.48389,-1.58102 -0.61043,-1.6025 0.48208,-3.18311 3.63073,-5.26103 1.70034,-1.12219 4.43973,-2.54559 4.76159,-2.4754 z m 5.50575,2.56704 c -0.0323,0 -0.0662,0 -0.0907,0.0179 -0.0633,0.0428 -0.0893,0.2077 -0.0591,0.37041 0.0591,0.3277 0.50184,0.48087 0.71626,0.24738 0.13095,-0.14224 -0.3251,-0.60607 -0.56649,-0.63521 z m -3.64027,0.0993 -0.54443,0.63595 c -2.29491,2.70241 -2.46874,3.10228 -0.69756,1.58429 1.16683,-1.00041 2.01022,-1.58147 1.96603,-1.35212 -0.0179,0.0741 -0.31392,0.38428 -0.66413,0.68812 -0.84096,0.7292 -1.715,1.87066 -1.7143,2.23912 0,0.19688 0.31175,0.0247 0.93399,-0.52623 1.03448,-0.91433 2.37465,-1.81021 2.13044,-1.42459 -0.0849,0.13632 -0.57888,0.85451 -1.09394,1.6003 -0.51538,0.74595 -1.2417,2.10588 -1.61596,3.02206 -0.48717,1.19319 -0.80423,1.73643 -1.11265,1.90916 -0.46471,0.26032 -1.05798,0.18475 -1.89145,-0.24193 -0.7682,-0.392 -0.91954,-0.80888 -0.70816,-1.94647 0.16271,-0.87084 0.38044,-1.25749 1.5971,-2.86358 0.87778,-1.15889 1.7811,-2.13541 2.40661,-2.59222 l 1.00841,-0.73205 z m -13.41815,-2.39188 -0.1811,0.85605 c -0.22102,1.02353 -0.10087,1.4902 0.52964,2.06262 0.39027,0.35347 0.60165,0.42427 1.20974,0.38844 1.04242,-0.0607 0.96595,-0.32357 -0.15698,-0.53892 -1.15773,-0.22253 -1.39948,-0.54821 -1.39804,-1.8479 v -0.92029 z m 1.21938,1.24078 c -0.0375,-0.0179 -0.0849,0 -0.14116,0.0372 -0.0735,0.0504 -0.0979,0.24411 -0.0547,0.43509 0.0735,0.33113 0.0849,0.33362 0.21849,0.0372 0.11378,-0.25205 0.0865,-0.47436 -0.0253,-0.50788 z m 3.41031,4.92424 c -0.2052,0 0.0179,0.39347 0.38245,0.62874 0.48096,0.31037 0.61271,0.33478 0.65389,0.12003 0.0324,-0.17706 -0.62839,-0.67028 -0.99157,-0.74003 -0.0179,0 -0.0324,0 -0.0446,0 z m -0.66816,0.317 c -0.0179,0 -0.0288,0 -0.0373,0.0179 -0.21818,0.14814 0.20088,1.12469 0.62266,1.45593 0.39366,0.30935 1.16205,0.39027 1.51428,0.15708 0.30095,-0.19842 0.0476,-0.55112 -0.46514,-0.65055 -0.26422,-0.0518 -0.721,-0.30589 -1.0126,-0.5705 -0.25485,-0.2314 -0.51375,-0.39789 -0.62263,-0.40291 z m 5.78656,1.40655 c -0.31716,-0.0608 -0.30889,0.46309 0.0179,0.61495 0.51638,0.2467 0.73423,0.2729 0.76821,0.0963 0.036,-0.18785 -0.47215,-0.65168 -0.77775,-0.71038 z m -0.6199,1.11877 c -0.1224,-0.0253 -0.16633,0.0221 -0.18507,0.12005 -0.0253,0.13181 0.10949,0.40013 0.29628,0.59493 0.38954,0.40163 0.75614,0.50577 1.18483,0.33781 0.38864,-0.15355 0.28584,-0.27082 -0.65218,-0.7618 -0.32651,-0.16991 -0.5224,-0.26637 -0.6438,-0.29154 z m 5.60022,1.38225 c -0.12239,0 -0.46296,0.18295 -1.29973,0.65286 -0.37483,0.21068 -0.58032,0.40342 -0.45245,0.42802 0.39455,0.077 1.73847,-0.58772 1.79592,-0.88727 0.0218,-0.11852 0.0288,-0.19124 -0.0431,-0.19377 z"
         id="path9188-0-6"
         style="display:inline;fill:#000000;stroke-width:0.26458332;enable-background:new"
         inkscape:connector-curvature="0" />
      <path
         inkscape:connector-curvature="0"
         id="path965"
         d="m 105.39091,259.44655 c -7.899034,2.3984 -22.351284,6.01651 -29.904904,7.48666 -4.50456,0.87671 -6.20094,1.00959 -7.02637,0.55036 -0.61502,-0.34216 -3.0506,-3.99658 -5.60187,-8.40522 -4.66851,-8.06728 -4.84496,-8.25383 -1.79276,-1.89553 4.00366,8.34037 4.99779,11.29778 3.67893,10.9444 -0.17671,-0.0473 -0.86155,-1.48895 -1.52188,-3.2035 -0.66032,-1.71457 -1.75725,-4.01284 -2.43764,-5.10725 l -1.23706,-1.98983 0.93095,2.41629 c 2.20223,5.71607 2.8477,8.03197 2.32299,8.33492 -0.51304,0.29619 -0.96916,-0.79582 -5.3824,-12.88648 -0.77685,-2.12821 -1.48853,-3.88988 -1.58153,-3.91479 -0.17555,-0.0471 1.86771,8.26862 3.4096,13.87643 0.48633,1.76874 0.82845,3.42409 0.76028,3.67853 -0.35953,1.34172 -1.2895,-0.85165 -2.76053,-6.5107 -0.90308,-3.47416 -1.76021,-6.24838 -1.90474,-6.16495 -0.14452,0.0834 0.37008,2.9251 1.14355,6.31478 1.03027,4.51513 1.23727,6.26066 0.77413,6.52806 -0.46315,0.26739 -1.08602,-1.85198 -2.32949,-7.92618 -0.9335,-4.56015 -1.72846,-8.17485 -1.76654,-8.03273 -0.14553,0.54313 1.7405,13.30516 2.23903,15.15069 0.19256,0.71283 0.0823,1.0658 -0.41667,1.3329 -0.50746,0.27169 -0.69287,0.20263 -0.73526,-0.27386 -0.0435,-0.48938 -0.23534,-0.55503 -0.82696,-0.283 -0.88488,0.4068 -1.03294,-0.30476 -1.54447,-7.42169 -0.3175,-4.41764 -0.67339,-6.19261 -0.71675,-3.57474 -0.0132,0.79044 0.0978,3.63662 0.24639,6.3248 0.17861,3.23079 0.0787,4.99816 -0.29466,5.21375 -0.64968,0.37511 -1.16574,-0.80435 -0.86395,-1.97455 0.28653,-1.11014 -0.44052,-7.18315 -0.73661,-6.15463 -0.14132,0.4918 -0.25687,2.08599 -0.25624,3.54275 0.001,3.23913 -0.27156,4.40317 -0.93044,3.96813 -0.55822,-0.36857 -0.54656,-1.14358 0.13884,-9.23622 0.47636,-5.62447 0.6162,-17.31471 0.21481,-17.95867 -0.11589,-0.18591 -0.19196,0.17177 -0.16902,0.79485 0.0229,0.62309 -0.12064,3.18484 -0.31894,5.69281 -0.19831,2.50795 -0.60987,8.12777 -0.91455,12.48847 -0.4979,7.12609 -0.98732,9.58858 -1.53999,7.74849 -0.10548,-0.35125 0.0512,-3.82411 0.34825,-7.71746 0.29701,-3.89336 0.44187,-7.10515 0.32187,-7.1373 -0.11998,-0.0322 -0.27272,0.63116 -0.33929,1.47403 -0.0666,0.84286 -0.46133,3.60817 -0.87711,6.14513 -0.4158,2.53696 -0.83756,5.40336 -0.9373,6.36978 -0.13902,1.34728 -0.33222,1.71668 -0.82816,1.5838 -0.62979,-0.16876 -0.29483,-3.23902 1.46877,-13.46316 0.27409,-1.58892 0.32704,-3.07083 0.1176,-3.29314 -0.20935,-0.2223 -0.30964,-0.16773 -0.22285,0.12116 0.27506,0.91584 -3.37106,16.09723 -3.83615,15.97261 -0.5608,-0.15026 0.008,-4.00641 1.31115,-8.88954 0.64874,-2.43128 0.88124,-4.07664 0.61563,-4.35868 -0.31487,-0.33433 -0.86302,1.39863 -2.09167,6.61274 -1.32629,5.62857 -1.7996,7.07996 -2.32685,7.13532 -0.52576,0.0553 -0.38984,-1.01804 0.66088,-5.21884 l 1.32281,-5.28832 -1.50337,4.61461 c -1.08271,3.32342 -1.68915,4.62536 -2.16734,4.653 -0.54524,0.0315 -0.34334,-0.98394 1.12893,-5.67797 l 1.79291,-5.71637 -2.04176,5.34927 c -1.9566,5.12609 -2.56107,6.21625 -3.01289,5.43368 -0.11338,-0.19646 1.53036,-5.04674 3.65288,-10.77837 2.12251,-5.73163 4.28885,-11.71445 4.8141,-13.29514 0.81647,-2.45706 0.69603,-2.27977 -0.83031,1.22209 -1.84868,4.24147 -8.06574,20.18848 -8.49458,21.78896 -0.13938,0.52013 -0.54042,0.82923 -0.93777,0.72275 -0.53488,-0.14331 -0.54723,-0.50586 -0.0538,-1.57935 0.35229,-0.76632 1.43553,-3.56154 2.4072,-6.21159 0.97168,-2.65005 2.16713,-5.79668 2.65656,-6.99251 1.54203,-3.7677 0.40021,-2.06045 -2.45504,3.67077 -4.52981,9.09248 -4.79939,9.54825 -5.53159,9.35206 -0.40667,-0.10904 -0.50773,-0.41468 -0.25301,-0.76538 0.43671,-0.60121 7.16813,-13.74452 8.79374,-17.17004 0.50176,-1.05733 1.24468,-2.59173 1.65094,-3.40979 2.99216,-6.0253 -5.83099,8.64165 -10.04067,16.69083 -1.18447,2.26478 -2.3656,4.06098 -2.62475,3.99153 -0.28957,-0.0777 -0.21232,-0.66002 0.20045,-1.51122 1.74996,-3.60873 1.89206,-3.98412 1.19986,-3.16953 -0.36662,0.43143 -0.91572,1.25938 -1.22024,1.83989 -0.72826,1.38828 -1.70766,2.24752 -1.99487,1.75007 -0.26001,-0.45036 2.64744,-5.42538 8.07034,-13.80941 3.8531,-5.95703 4.69581,-7.79839 1.73941,-3.80065 -0.94579,1.27891 -2.16423,2.86981 -2.70768,3.53535 -0.54344,0.66555 -2.70525,3.76993 -4.80405,6.89861 -2.0988,3.12871 -3.98411,5.53518 -4.18956,5.3477 -0.20548,-0.18746 -0.31923,-0.43464 -0.25282,-0.54926 1.1126,-1.92007 1.17177,-2.19551 0.22761,-1.0593 -1.04446,1.25693 -2.05139,1.8261 -2.34154,1.32357 -0.086,-0.14888 1.84284,-2.7415 4.28616,-5.76143 5.87451,-7.26079 8.71683,-10.96373 8.58753,-11.18769 -0.0581,-0.10073 -2.93393,3.00918 -6.39063,6.91079 -6.52335,7.36295 -7.96892,8.78026 -8.32542,8.16278 -0.11602,-0.201 2.13698,-3.00975 5.00674,-6.24165 2.86976,-3.23192 5.14505,-5.89568 5.0562,-5.91948 -0.2641,-0.0708 -5.56287,4.72773 -8.71417,7.89147 -1.61118,1.61751 -3.18279,2.87572 -3.49247,2.79599 -0.79799,-0.20564 -0.70538,-0.34124 1.78373,-2.61357 1.22709,-1.12022 2.25692,-2.13324 2.28851,-2.25115 0.0316,-0.11786 1.71511,-1.68155 3.74113,-3.47478 3.65834,-3.23795 5.94102,-5.50429 4.89654,-4.86148 -0.81434,0.50119 -4.8549,3.89858 -9.33709,7.85084 -4.89503,4.31629 -5.3683,4.66168 -5.41109,3.9489 -0.0182,-0.30158 2.68514,-2.91768 6.00717,-5.8136 5.98517,-5.21742 5.35739,-5.12821 -1.87595,0.26663 -2.06204,1.53793 -4.1997,3.13199 -4.75033,3.54237 -0.55061,0.41037 -1.10122,0.57357 -1.22356,0.36267 -0.12235,-0.21091 4.23783,-3.64558 9.68926,-7.63263 5.45142,-3.98706 10.26876,-7.64262 10.70519,-8.12346 1.08894,-1.19972 0.45472,-0.80973 -5.90954,3.634 -3.04055,2.123 -7.116,4.93337 -9.05653,6.24527 -1.94054,1.31188 -4.37269,2.9918 -5.4048,3.73314 -1.84446,1.32486 -1.88831,1.3295 -2.56605,0.2709 -0.37924,-0.59235 -0.9388507,-1.42509 -1.2435807,-1.85055 -0.7560499,-1.05565 0.0486,-1.83687 4.0335107,-3.91572 1.76722,-0.92196 8.52558,-4.7001 15.01859,-8.3959 9.30288,-5.29517 11.99403,-7.04532 12.69504,-8.25603 1.10147,-1.9024 4.11291,-3.26239 7.09524,-3.20426 11.89025,0.23173 27.69971,0.90647 36.78623,1.57003 3.6107,0.26368 5.2953,0.56746 5.80688,1.0471 0.97893,0.91783 2.35685,3.9423 2.14918,4.71733 -0.0927,0.34593 0.67006,1.74488 1.695,3.10879 3.40181,4.52684 12.068674,19.20395 11.841214,20.05284 -0.1213,0.45266 -0.75124,0.98416 -1.3999,1.1811 z m -55.546424,0.004 c -0.18929,0.1093 -0.30907,0.4925 -0.26614,0.8516 0.0473,0.39682 0.18238,0.31889 0.34416,-0.1987 0.14639,-0.46837 0.11128,-0.76219 -0.0779,-0.65289 z m -21.02238,-18.40669 c -1.41711,0.35943 -17.26239,9.62292 -17.4114,10.17906 -0.31118,1.16131 1.14655,1.48102 2.41711,0.53014 0.70023,-0.52406 4.5177,-3.12647 8.48326,-5.7831 3.96556,-2.65663 7.22777,-4.8962 7.24936,-4.97678 0.0216,-0.0805 -0.31067,-0.0577 -0.73835,0.0508 z"
         style="fill:#b3b3b3;fill-opacity:1;stroke-width:0.46511394"
         sodipodi:nodetypes="cccccsccccccscsccsscsccccccccccccsccssccscscscccscsccccscsccscccsscsccsccccsccccscsccccccssscscccsccscccccccccccccscsscscsccccscccccsccc" />
      <path
         sodipodi:nodetypes="cccccsccccccscsccsscsccccccccccccsccssccscscscccscsccccscsccscccsscsccsccccsccccscsccccccssscscccsccscccccccccccccscsscscscccsscccccccscccscccsscccsccccccsccccccsccsscccccsccccccccccsssssscssscsccscc"
         style="fill:#000000;fill-opacity:1;stroke-width:0.46511394"
         d="m 108.43959,259.92887 c -7.89903,2.3984 -22.351278,6.01651 -29.904898,7.48666 -4.50456,0.87671 -6.20094,1.00959 -7.02637,0.55036 -0.61502,-0.34216 -3.0506,-3.99658 -5.60187,-8.40522 -4.66851,-8.06728 -4.84496,-8.25383 -1.79276,-1.89553 4.00366,8.34037 4.99779,11.29778 3.67893,10.9444 -0.17671,-0.0473 -0.86155,-1.48895 -1.52188,-3.2035 -0.66032,-1.71457 -1.75725,-4.01284 -2.43764,-5.10725 l -1.23706,-1.98983 0.93095,2.41629 c 2.20223,5.71607 2.8477,8.03197 2.32299,8.33492 -0.51304,0.29619 -0.96916,-0.79582 -5.3824,-12.88648 -0.77685,-2.12821 -1.48853,-3.88988 -1.58153,-3.91479 -0.17555,-0.0471 1.86771,8.26862 3.4096,13.87643 0.48633,1.76874 0.82845,3.42409 0.76028,3.67853 -0.35953,1.34172 -1.2895,-0.85165 -2.76053,-6.5107 -0.90308,-3.47416 -1.76021,-6.24838 -1.90474,-6.16495 -0.14452,0.0834 0.37008,2.9251 1.14355,6.31478 1.03027,4.51513 1.23727,6.26066 0.77413,6.52806 -0.46315,0.26739 -1.08602,-1.85198 -2.32949,-7.92618 -0.9335,-4.56015 -1.72846,-8.17485 -1.76654,-8.03273 -0.14553,0.54313 1.7405,13.30516 2.23903,15.15069 0.19256,0.71283 0.0823,1.0658 -0.41667,1.3329 -0.50746,0.27169 -0.69287,0.20263 -0.73526,-0.27386 -0.0435,-0.48938 -0.23534,-0.55503 -0.82696,-0.283 -0.88488,0.4068 -1.03294,-0.30476 -1.54447,-7.42169 -0.3175,-4.41764 -0.67339,-6.19261 -0.71675,-3.57474 -0.0132,0.79044 0.0978,3.63662 0.24639,6.3248 0.17861,3.23079 0.0787,4.99816 -0.29466,5.21375 -0.64968,0.37511 -1.16574,-0.80435 -0.86395,-1.97455 0.28653,-1.11014 -0.44052,-7.18315 -0.73661,-6.15463 -0.14132,0.4918 -0.25687,2.08599 -0.25624,3.54275 10e-4,3.23913 -0.27156,4.40317 -0.93044,3.96813 -0.55822,-0.36857 -0.54656,-1.14358 0.13884,-9.23622 0.47636,-5.62447 0.6162,-17.31471 0.21481,-17.95867 -0.11589,-0.18591 -0.19196,0.17177 -0.16902,0.79485 0.0229,0.62309 -0.12064,3.18484 -0.31894,5.69281 -0.19831,2.50795 -0.60987,8.12777 -0.91455,12.48847 -0.4979,7.12609 -0.98732,9.58858 -1.53999,7.74849 -0.10548,-0.35125 0.0512,-3.82411 0.34825,-7.71746 0.29701,-3.89336 0.44187,-7.10515 0.32187,-7.1373 -0.11998,-0.0322 -0.27272,0.63116 -0.33929,1.47403 -0.0666,0.84286 -0.46133,3.60817 -0.87711,6.14513 -0.4158,2.53696 -0.83756,5.40336 -0.9373,6.36978 -0.13902,1.34728 -0.33222,1.71668 -0.82816,1.5838 -0.62979,-0.16876 -0.29483,-3.23902 1.46877,-13.46316 0.27409,-1.58892 0.32704,-3.07083 0.1176,-3.29314 -0.20935,-0.2223 -0.30964,-0.16773 -0.22285,0.12116 0.27506,0.91584 -3.37106,16.09723 -3.83615,15.97261 -0.5608,-0.15026 0.008,-4.00641 1.31115,-8.88954 0.64874,-2.43128 0.88124,-4.07664 0.61563,-4.35868 -0.31487,-0.33433 -0.86302,1.39863 -2.09167,6.61274 -1.32629,5.62857 -1.7996,7.07996 -2.32685,7.13532 -0.52576,0.0553 -0.38984,-1.01804 0.66088,-5.21884 l 1.32281,-5.28832 -1.50337,4.61461 c -1.08271,3.32342 -1.68915,4.62536 -2.16734,4.653 -0.54524,0.0315 -0.34334,-0.98394 1.12893,-5.67797 l 1.79291,-5.71637 -2.04176,5.34927 c -1.9566,5.12609 -2.56107,6.21625 -3.01289,5.43368 -0.11338,-0.19646 1.53036,-5.04674 3.65288,-10.77837 2.12251,-5.73163 4.28885,-11.71445 4.8141,-13.29514 0.81647,-2.45706 0.69603,-2.27977 -0.83031,1.22209 -1.84868,4.24147 -8.06574,20.18848 -8.49458,21.78896 -0.13938,0.52013 -0.54042,0.82923 -0.93777,0.72275 -0.53488,-0.14331 -0.54723,-0.50586 -0.0538,-1.57935 0.35229,-0.76632 1.43553,-3.56154 2.4072,-6.21159 0.97168,-2.65005 2.16713,-5.79668 2.65656,-6.99251 1.54203,-3.7677 0.40021,-2.06045 -2.45504,3.67077 -4.52981,9.09248 -4.79939,9.54825 -5.53159,9.35206 -0.40667,-0.10904 -0.50773,-0.41468 -0.25301,-0.76538 0.43671,-0.60121 7.16813,-13.74452 8.79374,-17.17004 0.50176,-1.05733 1.24468,-2.59173 1.65094,-3.40979 2.99216,-6.0253 -5.83099,8.64165 -10.04067,16.69083 -1.18447,2.26478 -2.3656,4.06098 -2.62475,3.99153 -0.28957,-0.0777 -0.21232,-0.66002 0.20045,-1.51122 1.74996,-3.60873 1.89206,-3.98412 1.19986,-3.16953 -0.36662,0.43143 -0.91572,1.25938 -1.22024,1.83989 -0.72826,1.38828 -1.70766,2.24752 -1.99487,1.75007 -0.26001,-0.45036 2.64744,-5.42538 8.07034,-13.80941 3.8531,-5.95703 4.69581,-7.79839 1.73941,-3.80065 -0.94579,1.27891 -2.16423,2.86981 -2.70768,3.53535 -0.54344,0.66555 -2.70525,3.76993 -4.80405,6.89861 -2.0988,3.12871 -3.98411,5.53518 -4.18956,5.3477 -0.20548,-0.18746 -0.31923,-0.43464 -0.25282,-0.54926 1.1126,-1.92007 1.17177,-2.19551 0.22761,-1.0593 -1.04446,1.25693 -2.05139,1.8261 -2.34154,1.32357 -0.086,-0.14888 1.84284,-2.7415 4.28616,-5.76143 5.87451,-7.26079 8.71683,-10.96373 8.58753,-11.18769 -0.0581,-0.10073 -2.93393,3.00918 -6.39063,6.91079 -6.52335,7.36295 -7.96892,8.78026 -8.32542,8.16278 -0.11602,-0.201 2.13698,-3.00975 5.00674,-6.24165 2.86976,-3.23192 5.14505,-5.89568 5.0562,-5.91948 -0.2641,-0.0708 -5.56287,4.72773 -8.71417,7.89147 -1.61118,1.61751 -3.18279,2.87572 -3.49247,2.79599 -0.79799,-0.20564 -0.70538,-0.34124 1.78373,-2.61357 1.22709,-1.12022 2.25692,-2.13324 2.28851,-2.25115 0.0316,-0.11786 1.71511,-1.68155 3.74113,-3.47478 3.65834,-3.23795 5.94102,-5.50429 4.89654,-4.86148 -0.81434,0.50119 -4.8549,3.89858 -9.33709,7.85084 -4.89503,4.31629 -5.3683,4.66168 -5.41109,3.9489 -0.0182,-0.30158 2.68514,-2.91768 6.00717,-5.8136 5.98517,-5.21742 5.35739,-5.12821 -1.87595,0.26663 -2.06204,1.53793 -4.1997,3.13199 -4.75033,3.54237 -0.55061,0.41037 -1.10122,0.57357 -1.22356,0.36267 -0.12235,-0.21091 4.23783,-3.64558 9.68926,-7.63263 5.45142,-3.98706 10.26876,-7.64262 10.70519,-8.12346 1.08894,-1.19972 0.45472,-0.80973 -5.90954,3.634 -3.04055,2.123 -7.116,4.93337 -9.05653,6.24527 -1.94054,1.31188 -4.37269,2.9918 -5.4048,3.73314 -1.84446,1.32486 -1.88831,1.3295 -2.56605,0.2709 -0.37924,-0.59235 -0.93885,-1.42509 -1.24358,-1.85055 -0.75605,-1.05565 0.0486,-1.83687 4.03351,-3.91572 1.76722,-0.92196 8.52558,-4.7001 15.01859,-8.3959 9.30288,-5.29517 11.99403,-7.04532 12.69504,-8.25603 1.10147,-1.9024 4.11291,-3.26239 7.09524,-3.20426 11.89025,0.23173 27.69971,0.90647 36.78623,1.57003 3.6107,0.26368 5.2953,0.56746 5.80688,1.0471 0.97893,0.91783 2.35685,3.9423 2.14918,4.71733 -0.0927,0.34593 0.67006,1.74488 1.695,3.10879 3.401808,4.52684 12.068668,19.20395 11.841208,20.05284 -0.1213,0.45266 -0.75124,0.98416 -1.3999,1.1811 z m -4.70089,-9.41198 c -2.41006,-4.10158 -5.433898,-8.98996 -6.719648,-10.86307 -1.28574,-1.87313 -2.25098,-3.72935 -2.14498,-4.12495 0.38537,-1.43822 -1.09307,-3.29297 -3.03594,-3.80871 -2.3277,-0.61825 -17.41528,-1.80558 -22.94382,-1.80611 -1.58959,-1.6e-4 -1.73974,0.11655 -1.94161,1.50991 l -0.21879,1.51007 -0.631,-1.49327 c -0.70471,-1.66765 -0.9208,-1.77603 -3.49491,-1.75264 -1.57504,0.0144 -1.78448,0.14419 -1.58802,0.98471 0.12446,0.53253 0.12947,1.32976 0.0105,1.77164 -0.18472,0.68933 -0.27637,0.63561 -0.6456,-0.37838 -0.73355,-2.01445 -1.62498,-2.53443 -4.39862,-2.56565 -1.99934,-0.0225 -2.38911,0.10152 -1.87907,0.59811 0.89377,0.87015 1.56726,4.36421 1.14499,5.94018 -0.27137,1.01275 0.0534,1.92134 1.43463,4.01439 0.98194,1.48794 3.57158,5.78418 5.75473,9.54721 2.18316,3.763 5.31836,8.99095 6.96713,11.61764 3.72977,5.942 3.95359,6.02799 11.50636,4.42069 8.48507,-1.8057 26.992858,-6.87232 27.142398,-7.43039 0.0345,-0.12868 -1.9092,-3.5898 -4.31925,-7.69138 z M 93.364322,236.75676 c -1.05371,0.11061 -1.78335,-0.7817 -0.87212,-1.06657 0.97806,-0.30575 1.86588,-0.0327 1.71572,0.5277 -0.0683,0.25485 -0.44791,0.49735 -0.84361,0.53891 z m -4.0412,-0.18995 c -0.83003,0.18164 -2.07298,0.17051 -2.76211,-0.0248 l -1.25299,-0.35497 1.28467,-0.30175 c 1.46063,-0.34308 4.40685,-0.27301 4.30624,0.10244 -0.0367,0.13684 -0.74579,0.39742 -1.57582,0.57907 z m -10.78403,0.62192 c -2.8382,0.44328 -5.10344,0.39329 -4.57856,-0.10099 0.53167,-0.50073 5.83548,-0.97951 6.39146,-0.57699 0.24673,0.1786 -0.56906,0.48373 -1.8129,0.67801 z m -13.05272,0.64208 c -0.46542,0.008 -2.84327,-0.046 -5.28411,-0.11853 -4.81894,-0.14305 -6.38867,-0.70712 -2.21129,-0.79459 4.72056,-0.0989 8.54599,0.13706 8.44319,0.5207 -0.0559,0.20853 -0.48237,0.38511 -0.94779,0.39239 z m -12.5932,22.10162 c -0.18929,0.1093 -0.30907,0.4925 -0.26614,0.8516 0.0473,0.39682 0.18238,0.31889 0.34416,-0.1987 0.14639,-0.46837 0.11128,-0.76219 -0.0779,-0.65289 z m -0.0691,-27.80911 c -1.33068,-1.58631 -3.49738,-1.88356 -5.57882,-0.76535 -1.01036,0.54279 -1.5111,0.98367 -1.1128,0.97976 0.39833,-0.004 1.23809,0.29885 1.86622,0.67267 0.78197,0.46548 1.18901,0.5132 1.29098,0.15141 0.0873,-0.31028 0.24987,-0.20441 0.39338,0.25631 0.15228,0.48886 0.77386,0.86863 1.64878,1.0074 1.75096,0.2777 1.62079,1.19358 -0.15797,1.11153 -2.5264,-0.11655 -2.49303,-0.14607 -3.19511,2.82952 l -0.67121,2.84477 0.85429,-2.53986 c 0.46985,-1.39691 1.04637,-2.48837 1.28113,-2.42547 0.23478,0.0629 0.36882,0.33099 0.29788,0.59575 -0.0709,0.26473 0.27384,0.24877 0.76618,-0.0355 0.49233,-0.28425 1.18397,-0.43945 1.53696,-0.34486 1.12149,0.3005 1.74811,-3.18414 0.78011,-4.33811 z m -5.8626,1.6922 c -0.35979,-0.0964 -0.59517,0.0211 -0.52308,0.26113 0.072,0.24 0.32132,0.48736 0.55382,0.54965 0.23252,0.0624 0.46789,-0.0552 0.52307,-0.2611 0.0551,-0.20593 -0.19404,-0.45328 -0.55381,-0.54968 z m -15.09068,7.71022 c -1.41711,0.35943 -17.26239,9.62292 -17.4114,10.17906 -0.31118,1.16131 1.14655,1.48102 2.41711,0.53014 0.70023,-0.52406 4.5177,-3.12647 8.48326,-5.7831 3.96556,-2.65663 7.22777,-4.8962 7.24936,-4.97678 0.0216,-0.0805 -0.31067,-0.0577 -0.73835,0.0508 z"
         id="path941"
         inkscape:connector-curvature="0" />
      <path
         inkscape:export-ydpi="71.956253"
         inkscape:export-xdpi="71.956253"
         inkscape:export-filename="/home/bond/Escritorio/infografia_sl.png"
         d="m 70.154349,236.52782 c 0.54619,-0.19332 1.00268,-0.53568 1.66578,-0.532 0.7374,0.11554 1.48431,0.27466 2.18905,0.23973 0.26317,0 1.5546,-0.79027 1.79307,-0.93009 0.45979,-0.27114 2.99962,-0.55631 3.47696,-0.88326 0.92028,-0.75159 1.33902,-1.45927 2.76002,-2.25466 1.21938,-0.27569 1.96513,0.16101 2.94764,0.24193 1.07896,0.36251 1.94352,0.40977 2.77917,0.41358 1.07335,-0.0325 1.8682,-0.53789 2.570919,-1.20186 0.41358,-0.44727 0.62653,-1.2351 0.53367,-1.68029 -0.16598,-0.58993 -0.31467,-0.91048 -0.42928,-1.67232 -0.0215,-0.95983 0.45127,-2.51744 1.01853,-3.19002 0.40173,-0.40462 1.31395,-1.42917 2.32537,-1.89482 1.08015,-0.49821 2.91568,-0.82783 5.80703,-0.8726 2.796462,-0.0429 7.894852,0.50494 10.333002,0.99122 2.43889,0.4864 9.32055,0.94776 11.3083,0.71498 2.17466,-0.2549 6.38313,-0.8736 10.02413,-2.23343 3.64098,-1.35955 5.47911,-2.08484 7.84845,-4.4625 2.36921,-2.37747 4.94,-5.67199 5.50908,-8.54841 0.56893,-2.87658 1.77275,-3.23908 1.77275,-3.23908 0,0 1.32723,1.76502 1.20125,4.14073 -0.12521,2.37567 -0.49927,5.98767 -1.08808,7.04946 -0.58907,1.06141 -1.10516,1.71923 -0.89163,2.78631 0.21385,1.0667 -0.41918,4.90987 -0.92502,6.07804 -0.89095,2.05708 -2.8477,3.51792 -3.45496,4.49526 -0.60709,0.97716 -0.80768,2.20682 -1.01948,3.36484 -0.21171,1.1579 -0.75758,2.71983 -1.58343,3.6732 -0.82626,0.95317 -3.09869,3.06517 -3.09869,3.06517 0,0 0.38463,1.77267 -0.36215,3.00912 -0.74678,1.23661 -2.25341,2.82964 -3.57863,3.28904 -1.32493,0.45928 -3.25753,1.40163 -3.25753,1.40163 0,0 -3.7196,2.06486 -3.84129,2.1616 -0.11941,0.0963 -0.71091,0.66355 -1.19706,1.04978 -0.48611,0.38624 -1.26328,1.39983 -2.88023,1.9923 -1.61695,0.59198 -3.05146,1.28666 -3.05146,1.28666 0,0 -0.24264,0.44016 -1.05754,0.79024 -0.81412,0.3502 -2.83312,0.5693 -4.50451,0.41864 -1.67225,-0.15513 -3.73417,-0.79261 -4.67088,-1.08723 -0.93642,-0.29483 -5.51654,-2.19618 -5.51654,-2.19618 0,0 -0.63172,0.70016 -1.41565,1.27334 -0.784092,0.57318 -1.483192,1.12843 -2.315922,0.90043 -0.83318,-0.22826 -2.86615,-2.37289 -2.86615,-2.37289 0,0 0,0.49425 -0.63085,1.44149 -0.6317,0.94712 -1.49988,2.28031 -2.59485,2.16 -1.09452,-0.1215 -3.345619,-1.79378 -3.412459,-1.93849 -0.0662,-0.14519 -0.20731,-0.37945 -0.20731,-0.37945 0,0 -0.5223,0.95929 -1.43999,1.49068 -0.91785,0.5314 -1.65253,1.16476 -2.69927,0.36446 -1.04655,-0.80103 -2.11847,-2.86813 -2.11847,-2.86813 0,0 -0.32148,0.89835 -1.74498,0.2477 -1.42356,-0.64978 -2.45214,-2.10786 -2.45214,-2.10786 0,0 -1.26431,0.16415 -1.86074,-0.20341 -0.59615,-0.36724 -1.43596,-1.28295 -1.18727,-1.77732 0.24876,-0.4948 1.95419,-4.37316 2.0933,-5.12664 0.13955,-0.75392 -0.28043,-1.45897 -0.91971,-1.94073 -0.63876,-0.48166 -4.13074,-2.45641 -4.98893,-3.45627 -0.85854,-1.00015 -0.83433,-1.46474 -0.69468,-1.47688 l 2.7e-4,-2.6e-4 v 0 0 z"
         id="path5569"
         style="fill:#ff5599;fill-opacity:1;stroke:none;enable-background:new"
         inkscape:connector-curvature="0" />
      <path
         inkscape:export-ydpi="71.956253"
         inkscape:export-xdpi="71.956253"
         inkscape:export-filename="/home/bond/Escritorio/infografia_sl.png"
         d="m 146.73116,206.98007 c 0.14103,0.1304 0.23758,0.34028 0.42437,0.74656 0.45732,0.99448 0.72158,3.85194 0.53092,5.70631 -0.0763,0.73375 -0.32472,1.76858 -0.55801,2.29642 -0.23255,0.52816 -0.44551,1.37732 -0.47058,1.88886 -0.0561,1.1545 -0.25702,1.94832 -0.67505,2.67807 -0.17712,0.30963 -0.31031,0.95679 -0.29737,1.43528 0.039,1.29762 -0.38015,3.68751 -0.89594,5.15091 -0.36203,1.02609 -0.68572,1.58233 -1.57651,2.68591 -0.73986,0.91705 -1.22453,1.39986 -1.41331,1.41172 -0.47449,0.0282 -1.25307,1.05968 -1.34309,1.77764 -0.0446,0.36042 -0.35315,1.70799 -0.68715,2.99279 l -0.60838,2.33603 -1.87602,2.06428 -1.87227,2.068 -0.0476,0.92073 c -0.0735,1.38161 -0.39209,2.12609 -1.39938,3.26647 -1.01719,1.15174 -3.07391,2.39866 -4.68555,2.84225 -0.49665,0.13629 -1.26242,0.51762 -1.70206,0.84589 -0.44019,0.32831 -1.46084,0.90059 -2.26824,1.27142 -0.93985,0.4326 -1.83756,1.00044 -2.49749,1.584 -1.6027,1.41703 -3.33183,2.48622 -4.76029,2.93522 -0.93469,0.29381 -1.443,0.56152 -1.78427,0.94785 -0.37384,0.423 -0.71972,0.58283 -1.58873,0.7344 -1.56684,0.27287 -2.30859,0.26027 -4.0894,-0.0726 -2.46784,-0.46122 -2.77354,-0.56638 -6.01121,-1.98225 l -3.06485,-1.33521 -0.91596,0.87375 c -1.104157,1.0495 -1.552129,1.2834 -2.618439,1.38606 l -0.81618,0.0829 -1.24199,-1.15062 -1.24199,-1.14237 -1.26949,1.53167 -1.26572,1.53526 h -0.86559 c -1.02542,0 -1.86519,-0.37627 -2.909629,-1.29671 l -0.77022,-0.67291 -0.94607,0.77112 c -1.82548,1.48549 -3.79449,1.07912 -4.97023,-1.03214 -0.39974,-0.71764 -0.41889,-0.72978 -1.30276,-0.82489 -1.32868,-0.14221 -1.97606,-0.47436 -2.92965,-1.48856 -0.6405,-0.68104 -0.97587,-0.92179 -1.42801,-1.0267 -0.70012,-0.16223 -1.01517,-0.40948 -1.52725,-1.19703 -0.55756,-0.85749 -0.43139,-1.51259 0.68731,-3.58455 1.12075,-2.07572 1.2483,-2.59914 0.83216,-3.45675 -0.37153,-0.76606 -0.98955,-1.29595 -2.64884,-2.28678 -1.80918,-1.08014 -3.62371,-2.8019 -3.70336,-3.51362 -0.0323,-0.28222 0.0324,-0.61392 0.14401,-0.73746 0.2322,-0.26208 1.30364,-0.3194 3.10908,-0.16431 0.70832,0.0607 1.40453,0.0372 1.55014,-0.0548 0.14398,-0.0918 0.56201,-0.37199 0.92387,-0.61671 0.43933,-0.29692 1.1448,-0.49171 2.12843,-0.59086 1.43883,-0.14365 1.48866,-0.16793 2.33164,-1.01773 1.55069,-1.56328 2.73536,-1.90384 4.74155,-1.36031 2.6929,0.72933 3.98484,0.6607 4.861639,-0.26131 0.6886,-0.72418 0.757,-1.15793 0.38479,-2.35839 -0.661529,-2.13345 0.19294,-4.18825 2.4069,-5.7798 0.92333,-0.66401 3.07478,-1.33316 4.86065,-1.51288 1.61134,-0.16265 8.940559,0.47744 11.912959,1.04044 3.52377,0.66765 5.59186,0.85736 8.78355,0.80785 3.7221,-0.0578 4.07243,-0.0933 7.25349,-0.82399 8.40773,-1.92713 11.39655,-3.44826 15.17363,-7.72218 1.86535,-2.11139 2.46582,-3.27688 3.58065,-6.9638 0.94651,-3.12947 0.99473,-3.19205 2.25024,-2.85603 0.34851,0.0918 0.53238,0.14372 0.67306,0.27617 z m -1.36336,3.07093 c -0.16453,-0.14974 -0.56204,0.57841 -1.08475,1.9751 -0.70515,1.88325 -2.51623,4.76461 -3.81378,6.0683 -3.80487,3.82274 -8.93723,6.13905 -16.79118,7.58916 -5.2824,0.97549 -6.83427,0.89255 -19.04515,-1.04108 -3.03663,-0.48082 -4.15331,-0.55506 -6.389459,-0.42917 -2.95658,0.16636 -4.63098,0.67261 -6.25036,1.88488 -0.71367,0.5345 -0.87782,0.74 -1.19332,1.53078 -0.44727,1.12373 -0.44265,2.23154 0.0179,2.6317 1.20411,1.0634 -0.21314,3.88195 -2.171199,4.32057 -1.12392,0.252 -1.95505,0.19112 -4.19367,-0.32397 -2.34673,-0.53956 -2.7188,-0.45602 -4.14541,0.96947 l -1.12564,1.12824 -1.15758,0.0247 c -1.19632,0.0247 -2.89234,0.58 -3.34912,1.09692 -0.28401,0.3219 -0.82251,0.35821 -1.57894,0.10513 -0.85822,-0.28577 -2.24966,-0.20338 -2.48192,0.14981 -0.20306,0.30713 -0.13825,0.38934 1.36854,1.69435 1.24112,1.0745 1.80906,1.45866 2.64249,1.78814 1.13529,0.44878 2.30974,1.36432 2.53756,1.97603 0.19944,0.53687 -0.25417,2.10501 -1.10766,3.81979 -0.92646,1.86042 -1.11235,2.592 -0.83788,3.3 0.26746,0.68872 0.17167,0.62029 0.97888,0.65968 l 0.67851,0.0385 0.59211,-1.03083 c 0.83808,-1.45686 2.03514,-4.19491 1.95291,-4.46794 -0.0476,-0.15868 -0.13095,-0.1037 -0.26676,0.18102 -0.86786,1.83538 -1.24829,1.71863 -0.849,-0.25689 0.32219,-1.59671 0.31643,-2.13066 -0.0179,-1.32339 -0.12815,0.31168 -0.35782,0.64978 -0.50875,0.75601 -0.36288,0.25448 0.42076,-2.48062 0.95282,-3.32754 l 0.39369,-0.62266 0.0179,0.64706 c 0.0218,1.14211 0.234,1.48492 1.12306,1.81822 1.04197,0.39052 1.30763,0.32535 2.0573,-0.50975 0.51852,-0.57846 0.65503,-0.88355 0.74431,-1.69258 0.10373,-0.94517 0.12963,-0.99349 0.62609,-1.12937 0.45117,-0.12438 0.53094,-0.0904 0.60322,0.25235 0.0461,0.21698 0.16633,0.82738 0.27322,1.35554 0.22573,1.11495 0.39399,1.2994 1.3022,1.46074 1.39461,0.24811 1.96065,-0.38358 2.37208,-2.63439 0.16992,-0.93748 0.34595,-1.41421 0.51564,-1.42443 0.40939,-0.0247 0.619199,0.53393 0.51436,1.35673 -0.14398,1.12341 0.449569,1.58195 1.953639,1.52088 0.98696,-0.04 1.20279,-0.11852 1.63306,-0.60428 0.43286,-0.49053 0.49162,-0.74534 0.46139,-2.03319 -0.0179,-0.80903 0.0533,-1.57109 0.16056,-1.69226 0.23002,-0.26061 0.74691,0.14218 1.32836,1.03672 0.3096,0.47612 0.48224,0.61081 0.86975,0.65452 0.75197,0.0844 2.21296,-0.36949 2.59772,-0.80503 0.53454,-0.60457 0.76462,-1.83436 0.50559,-2.692 -0.19945,-0.65853 -0.38607,-0.89941 -1.26764,-1.6198 -1.22236,-0.999 -1.12821,-1.30623 0.20773,-0.67291 1.45684,0.69081 2.782879,0.42354 3.581959,-0.71703 0.51551,-0.73557 0.57427,-1.74607 0.1515,-2.60948 -0.21097,-0.43096 -0.37384,-0.55349 -1.00034,-0.7471 -0.41243,-0.12739 -0.948527,-0.21097 -1.194759,-0.18298 -0.54144,0.0607 -0.65474,-0.19393 -0.27613,-0.62266 0.40291,-0.45646 2.061329,-0.42888 2.796169,0.0443 1.67226,1.0764 7.954,2.10098 11.66036,1.90132 3.282,-0.17719 4.78002,-0.69974 6.41339,-2.24073 0.61139,-0.57735 1.18855,-1.05587 1.27853,-1.06151 0.5076,-0.0325 -0.13674,0.80266 -2.31057,2.98463 -0.42838,0.43062 -0.42751,0.47036 0,0.91788 0.34018,0.3553 0.70877,0.50385 1.51082,0.60668 1.10634,0.14222 3.80702,-0.12886 3.79174,-0.38018 0,-0.0785 -0.41713,-0.33477 -0.91682,-0.56681 -1.09567,-0.50914 -1.03233,-0.45319 -0.82338,-0.68959 0.0936,-0.10667 0.46872,-0.0667 0.83058,0.0889 1.5261,0.65923 2.66972,0.74224 4.58403,0.31972 1.02686,-0.22682 1.92828,-0.48416 2.00142,-0.567 0.0865,-0.0978 -0.0921,-0.30012 -0.51551,-0.58366 l -0.65042,-0.43068 1.01158,0.27924 c 1.07755,0.29885 2.3679,0.10965 4.3273,-0.63431 1.23578,-0.46879 1.32202,-0.79069 0.26458,-0.99467 -1.27498,-0.24594 -1.24747,-0.63868 0.0323,-0.45678 0.67031,0.0963 1.52882,0.0462 2.06924,-0.12 0.90476,-0.27745 4.11419,-2.32488 4.09648,-2.61245 0,-0.0785 -0.4686,-0.2152 -1.03307,-0.29836 -0.56361,-0.0829 -0.9973,-0.22752 -0.95772,-0.32292 0.039,-0.0963 0.58968,-0.23259 1.22066,-0.30887 0.63102,-0.0771 1.59969,-0.33867 2.14946,-0.58016 0.97777,-0.42889 1.02267,-0.47452 2.12065,-2.01513 0.61779,-0.8662 1.209,-1.81818 1.31817,-2.11779 l 0.19944,-0.54363 -0.7626,0.357 c -1.14653,0.536 -1.17762,0.25199 -0.10369,-0.96355 0.80535,-0.91186 0.98897,-1.23789 1.25422,-2.23509 0.41585,-1.56366 0.41685,-2.99645 0,-4.23005 -0.18974,-0.56031 -0.4002,-1.06448 -0.46411,-1.12222 z m -0.88531,11.95242 -0.51509,0.51493 c -2.31115,2.3237 -4.88441,4.42769 -6.81525,5.56208 -0.431,0.25343 -0.82812,0.55743 -0.87942,0.67832 -0.0519,0.11999 0.43285,-0.0785 1.07524,-0.44487 1.69659,-0.96828 1.08604,-0.17171 -0.70387,0.91689 -3.9418,2.39966 -9.42364,4.46129 -13.77742,5.18088 -1.71718,0.28395 -2.31406,0.47036 -2.3604,0.74207 -0.0547,0.31892 1.18438,0.25417 3.74694,-0.1922 1.12162,-0.19553 1.99828,-0.25695 1.94775,-0.13623 -0.13245,0.31169 -3.22141,1.05226 -5.62385,1.34645 -1.12492,0.1378 -2.12238,0.33516 -2.21454,0.43914 -0.18468,0.20888 -0.2142,0.20088 1.50676,0.2852 1.69329,0.083 1.06259,0.34889 -1.29035,0.54282 -1.16391,0.0963 -2.13201,0.27329 -2.15292,0.39494 -0.0403,0.22932 0.51596,0.76578 0.98497,0.95343 0.43744,0.1753 4.96546,-0.13033 5.15786,-0.34767 0.13821,-0.15512 0.1123,-0.19557 -0.12682,-0.18119 -0.16991,0.0179 -0.49504,-0.1466 -0.72212,-0.3495 l -0.41358,-0.37301 0.57399,0.0372 c 0.31606,0.0179 1.08328,0.15516 1.70449,0.30105 0.62222,0.14664 1.58224,0.21571 2.13115,0.15336 1.02513,-0.11704 2.89654,-0.60091 2.8876,-0.74671 0,-0.0443 -0.37928,-0.23893 -0.83965,-0.43094 -0.46094,-0.19214 -0.84279,-0.42034 -0.84871,-0.50683 0,-0.0859 0.0323,-0.14974 0.0793,-0.14219 2.96724,0.48842 3.85367,0.49214 5.22914,0.0179 1.96558,-0.68936 2.13562,-0.80208 1.67673,-1.0576 -0.20271,-0.11256 -0.68373,-0.3071 -1.0731,-0.43292 -0.91583,-0.29525 -0.73352,-0.49357 0.33948,-0.36711 0.80814,0.0963 1.66159,-0.0179 2.83143,-0.35626 0.63201,-0.18654 3.96713,-2.4785 3.95275,-2.71644 0,-0.0859 -0.523,-0.21823 -1.15315,-0.29083 -0.63041,-0.0711 -1.14967,-0.17718 -1.15341,-0.23835 0,-0.0607 0.36589,-0.17347 0.82107,-0.25199 1.54467,-0.26861 2.58665,-0.60751 3.37301,-1.09881 0.69205,-0.432 0.86498,-0.63602 1.48751,-1.71792 0.7757,-1.34888 0.99013,-2.18485 1.09106,-4.28173 l 0.0664,-1.39692 z m -8.85731,7.08546 c -0.0808,-0.0443 -1.0778,0.34767 -2.31793,0.91628 -3.24786,1.48927 -6.50222,2.46514 -10.66047,3.19659 -0.82928,0.14663 -1.56338,0.32823 -1.63264,0.40708 -0.26064,0.29477 0.0179,0.52146 0.47993,0.4089 5.31441,-1.26117 7.84402,-2.00103 10.56184,-3.10164 2.17162,-0.87968 3.45319,-1.53141 3.57401,-1.81556 0,0 0,-0.0179 0,-0.0179 z m 3.61664,4.71033 c 0,0 -0.0179,-0.0179 -0.0253,-0.0179 -0.11362,-0.0504 -1.10243,0.42257 -2.19682,1.04565 -2.82468,1.60814 -4.48886,2.34884 -7.75891,3.45521 -3.06584,1.0372 -3.98385,1.21528 -8.02442,1.56802 -2.70241,0.23611 -3.38219,0.49393 -1.43521,0.54385 3.55297,0.0904 8.93951,-0.77736 12.16162,-1.96114 1.6678,-0.61279 1.63193,-0.31469 -0.0504,0.41759 -2.89897,1.26104 -6.10767,1.94826 -10.68824,2.29261 -2.63346,0.19787 -3.41105,0.3527 -3.1173,0.61183 0.0519,0.0461 1.16366,0.0282 2.46845,-0.04 1.30443,-0.0681 2.37494,-0.0533 2.3807,0.0325 0.0179,0.25804 -1.40976,0.46574 -3.35847,0.48985 -1.7575,0.0224 -2.48641,0.18123 -2.88254,0.62965 -0.10503,0.11851 -0.95458,0.57629 -1.88507,1.01837 -0.93038,0.44224 -1.71805,0.87807 -1.75549,0.96588 -0.0778,0.18109 1.10087,0.36433 2.82897,0.44461 1.80386,0.083 2.30339,-0.0578 1.78731,-0.5133 -0.14977,-0.13184 -0.21814,-0.30195 -0.1515,-0.37688 0.0677,-0.0741 0.23076,-0.0444 0.36272,0.0711 0.4245,0.37083 2.1862,0.7985 3.26058,0.788 l 1.04181,-0.0179 -0.54042,-0.59823 c -0.29737,-0.32951 -0.49335,-0.65157 -0.43892,-0.71348 0.0562,-0.0607 0.6984,0.10664 1.43234,0.37807 0.73385,0.27005 1.48751,0.49422 1.67299,0.50014 0.56937,0.0179 3.67178,-0.63079 3.6633,-0.76651 0,-0.0711 -0.31104,-0.23405 -0.68226,-0.36016 -1.62229,-0.55154 -1.19936,-0.8899 0.62494,-0.50162 1.35128,0.28754 2.30051,0.14975 3.92495,-0.56533 2.3466,-1.03243 3.56281,-1.99851 2.55078,-2.0296 -0.16056,0 -0.52284,-0.0934 -0.80147,-0.20015 l -0.50674,-0.18961 0.97559,-0.16995 c 1.92495,-0.33304 3.317,-1.40566 4.36387,-3.3616 0.59627,-1.11463 1.02349,-2.67644 0.79959,-2.87896 z m -19.95089,-5.51732 c 0.0994,0.077 -0.15512,0.30739 -0.76147,0.69923 -0.50629,0.32756 -1.15169,0.51157 -2.06867,0.58311 -0.73295,0.0578 -1.40614,0.0386 -1.49571,-0.04 -0.27505,-0.24264 0.12681,-0.5043 0.80481,-0.52486 0.35385,-0.0179 1.32435,-0.22253 2.15983,-0.47202 0.80481,-0.24002 1.26127,-0.32145 1.36121,-0.24546 z m 14.67555,14.94854 c -0.0504,-0.0844 -1.14423,0.26576 -2.43127,0.77849 -1.28676,0.51304 -3.03318,1.11879 -3.88448,1.35167 -1.80589,0.49408 -5.41766,0.95852 -7.85453,1.00607 -2.23801,0.0444 -6.60691,-0.30086 -8.4607,-0.66695 -0.80843,-0.16063 -1.55348,-0.1979 -1.65153,-0.0859 -0.15151,0.17347 -0.0849,0.22711 0.46555,0.36577 1.69384,0.42565 4.85776,0.93911 6.5621,1.06622 1.98602,0.14814 6.66971,-0.0637 8.85388,-0.39585 0.70672,-0.10666 1.2964,-0.11557 1.30274,-0.0179 0.0253,0.41498 -2.12599,0.81617 -5.51037,1.02993 -3.66547,0.23156 -6.66855,0.0918 -9.40048,-0.43571 -1.42759,-0.27614 -1.93388,-0.23761 -1.53846,0.11112 0.27105,0.23969 1.70405,0.60322 3.56163,0.91023 0.91887,0.15108 1.66994,0.35421 1.67427,0.44768 0.0179,0.24443 -1.78703,0.15685 -3.76626,-0.18119 -1.6923,-0.28933 -1.71142,-0.28683 -2.52413,0.31767 -0.45073,0.33465 -0.95718,0.67979 -1.12796,0.76219 -0.41025,0.19761 -0.26999,0.2942 0.93399,0.65052 1.03057,0.30518 1.34133,0.24296 1.10144,-0.21718 -0.28981,-0.55525 0.11939,-0.47055 1.02712,0.20991 0.7177,0.53821 1.18626,0.74326 1.9162,0.85127 l 0.96275,0.14664 -0.28799,-0.68668 c -0.22643,-0.53155 -0.22464,-0.67079 0.0179,-0.63271 0.16809,0.0282 0.47705,0.19659 0.68728,0.37986 0.21027,0.18295 0.72978,0.42648 1.15617,0.53629 0.42639,0.10962 0.85666,0.26813 0.95529,0.35139 0.31357,0.26282 2.53047,0.0963 2.80062,-0.20994 0.0632,-0.0681 -0.20809,-0.40324 -0.59819,-0.74768 -0.91798,-0.81096 -0.60694,-0.82918 1.2636,-0.0741 1.73675,0.70105 2.65719,0.78755 4.41309,0.42681 1.24343,-0.25571 2.60147,-0.88606 2.58216,-1.19851 0,-0.0771 -0.37813,-0.18903 -0.82841,-0.2467 -0.70531,-0.0903 -1.42961,-0.43209 -1.27696,-0.60499 0.0253,-0.0326 0.53191,0 1.12203,0.0518 1.32234,0.13184 3.67281,-0.38828 4.95063,-1.09971 1.71043,-0.95231 3.33714,-3.39257 2.83563,-4.24884 z m -15.25225,-10.6222 c -0.29125,-0.2444 -0.70893,-0.48618 -1.26562,-0.74652 -0.77183,-0.36072 -1.24718,-0.41301 -2.75538,-0.296 -2.81129,0.21776 -6.75005,-0.10369 -10.10048,-0.81896 -2.24089,-0.47878 -2.33503,0.0247 -0.12383,0.66368 1.03649,0.30003 2.12109,0.50107 4.78792,0.88669 0.43273,0.0637 0.46078,0.0963 0.28798,0.29231 -0.30095,0.34057 -1.48389,0.27793 -3.98945,-0.21174 -1.26706,-0.24769 -2.39598,-0.39849 -2.51219,-0.33105 -0.30239,0.17526 0.55253,0.44291 3.47625,1.08472 1.33457,0.29256 2.48225,0.58519 2.55177,0.64665 0.41935,0.3705 -4.02932,-0.0578 -5.72921,-0.55052 -0.43014,-0.12591 -0.80756,-0.11704 -0.93242,0.0253 -0.17347,0.19688 0.30134,0.40193 2.75858,1.19335 1.63366,0.52637 2.97313,1.01997 2.97758,1.09158 0.0179,0.23892 -1.03461,0.0503 -3.58942,-0.6389 -1.95608,-0.52796 -2.61383,-0.62352 -2.89205,-0.43241 -0.59342,0.40695 -0.40564,0.66416 0.8287,1.16385 1.99812,0.8099 4.56587,1.36916 7.84085,1.70367 2.11344,0.21571 4.00557,0.0247 5.49119,-0.56175 1.03781,-0.40845 2.69651,-1.64074 3.08918,-2.29661 0.467,-0.77906 0.44051,-1.32931 -0.20014,-1.86721 z m -1.63267,1.44546 c 0,0 0,0.0179 0.0179,0.0179 0.0403,0.10369 -0.31031,0.62574 -0.7855,1.1635 -1.00194,1.13481 -1.443,1.29278 -3.23204,1.16257 -1.33457,-0.0978 -1.34305,-0.39664 -0.0179,-0.54644 1.48405,-0.16812 1.88969,-0.3275 2.96221,-1.17375 0.52541,-0.41438 0.97556,-0.67655 1.06426,-0.62115 z m -1.4073,0.22029 c 0.13098,0.17927 -0.24011,0.3929 -0.94907,0.5338 -0.91138,0.18106 -1.03579,0.10965 -0.47548,-0.27659 0.44451,-0.30591 1.19402,-0.46091 1.39029,-0.28757 0.0179,0.0179 0.0253,0.0179 0.0323,0.0282 z m 0.21927,5.2871 c -0.0633,-0.0592 -0.13245,-0.11852 -0.2045,-0.18103 -1.00986,-0.89213 -1.21244,-0.94846 -3.35703,-0.9108 -1.62342,0.0282 -3.0261,-0.15157 -5.59446,-0.71985 -1.61695,-0.35722 -4.87102,-1.30056 -5.88491,-1.70402 -0.33189,-0.13184 -0.66006,0.077 -0.43385,0.27665 0.21635,0.19063 2.44766,1.00646 4.54672,1.66604 1.83365,0.57629 2.26597,0.81288 1.76227,0.96543 -0.29378,0.0889 -3.26877,-0.61138 -4.72963,-1.11537 -1.26947,-0.43811 -1.68536,-0.49943 -1.66963,-0.24696 0.0179,0.18103 2.30509,1.30886 3.40826,1.67658 1.24587,0.41496 1.71244,0.70416 1.51054,0.93229 -0.20268,0.23009 -1.60789,-0.15333 -3.61866,-0.98324 -1.5791,-0.65158 -2.051817,-0.71172 -2.211109,-0.28549 -0.12963,0.34428 -0.18106,0.30256 1.992809,1.63139 2.46697,1.50948 3.28645,1.86504 5.90982,2.55969 3.42815,0.90757 4.39798,0.91794 6.40458,0.0844 1.24504,-0.51599 1.80358,-0.8474 2.26638,-1.35583 0.84686,-0.93037 0.85019,-1.40265 -0.0979,-2.29219 z m 3.40724,3.54798 c 0,0 0,0.0179 0,0.0224 0,0.0963 -0.52903,0.20598 -1.18768,0.247 -0.65862,0.04 -1.20007,0 -1.20584,-0.10222 0,-0.0963 0.52503,-0.2095 1.18368,-0.25052 0.61744,-0.0385 1.13785,0 1.2051,0.0859 z m -4.41178,-2.22193 c 0.0518,0.0504 0.075,0.16463 0.0849,0.33304 0.0735,1.18534 -3.22829,2.26091 -5.04583,1.64478 -0.35927,-0.123 -0.65546,-0.25753 -0.65863,-0.30134 0,-0.0445 0.85333,-0.13187 1.90362,-0.19841 1.86308,-0.11558 1.92857,-0.13479 2.74737,-0.87094 0.59109,-0.53082 0.85361,-0.71735 0.96851,-0.60713 z m -2.42621,0.40385 c 0.0288,0.0179 0.0323,0.0386 0.0179,0.0638 -0.0865,0.0978 -0.50587,0.20056 -0.93569,0.22723 -0.42972,0.0247 -0.78652,-0.0325 -0.79228,-0.12444 0,-0.0919 0.41729,-0.19128 0.93988,-0.22356 0.39151,-0.0246 0.68802,0 0.77599,0.0578 z m -11.57371,-9.59381 c 0.0179,0.0179 0.0288,0.0386 0.039,0.0577 0.16812,0.32103 -0.2869,0.89928 -0.7269,0.92653 -0.458767,0.0282 -0.547497,-0.1289 -0.383477,-0.66449 0.12236,-0.39571 0.220317,-0.48873 0.555697,-0.50961 0.198,-0.0179 0.41198,0.0682 0.51535,0.18932 z m 21.35027,20.38221 c -0.0677,-0.0741 -0.29951,-0.0578 -0.82379,0.0176 -2.21025,0.3031 -5.55113,0.36164 -7.31728,0.12444 -2.41324,-0.32545 -6.26633,-1.32147 -7.84918,-2.02902 -1.20452,-0.53822 -2.09486,-0.74682 -2.07888,-0.48692 0.0253,0.43168 7.49423,2.83803 9.74117,3.13937 1.03609,0.13776 0.64755,0.35347 -0.70819,0.39008 -1.66274,0.0444 -4.45168,-0.50966 -6.6828,-1.32458 -2.70497,-0.98801 -2.78733,-1.01155 -2.77843,-0.87011 0,0.11558 1.14624,0.80209 1.89818,1.14592 0.61443,0.2812 0.072,0.35245 -0.95846,0.12445 -0.91365,-0.20268 -1.03951,-0.18785 -0.88256,0.10667 0.15698,0.29525 0.0648,0.30383 -0.67937,0.083 -0.47503,-0.14222 -0.93972,-0.31793 -1.03044,-0.39479 -0.32687,-0.27796 -0.60512,0 -0.5868,0.59567 0.0218,0.7203 0,0.70387 1.56581,1.368 0.67912,0.28875 1.79138,0.78681 2.47117,1.10669 1.16407,0.54737 2.70903,0.77599 2.52673,0.37464 -0.44538,-0.98193 -0.17712,-1.01645 1.09839,-0.13629 0.53985,0.37214 1.35734,0.7976 1.81325,0.94219 0.84958,0.26919 4.5254,0.24119 4.50929,-0.0355 0,-0.083 -0.38665,-0.29749 -0.84615,-0.47468 -0.46008,-0.17718 -0.83923,-0.41643 -0.84583,-0.52739 -0.0179,-0.19941 0.44308,-0.22282 2.57124,-0.13776 0.60566,0.0253 1.43897,-0.0593 1.85223,-0.18285 1.67958,-0.50472 3.71242,-1.85921 4.00402,-2.67106 0.0431,-0.12003 0.0591,-0.1981 0.0179,-0.24268 z m -14.64845,-7.38289 c -0.0849,-0.0756 -0.16994,-0.13777 -0.24875,-0.18286 -0.25705,-0.13779 -1.14941,-0.52989 -1.98173,-0.87138 -1.93157,-0.79261 -4.42478,-2.10771 -5.662567,-2.98546 -1.077802,-0.76414 -1.559212,-0.93127 -1.534422,-0.5287 0.0179,0.27789 2.184139,1.90717 3.453479,2.59519 0.86341,0.46815 1.078,0.64149 0.95384,0.78194 -0.19006,0.21555 -2.03107,-0.67245 -3.742039,-1.8046 -1.49904,-0.99154 -2.24582,-1.30175 -2.47908,-1.03759 -0.16453,0.18606 0.0518,0.4035 1.68951,1.74277 1.04457,0.85377 2.073289,1.58371 2.323709,1.64266 0.24696,0.0593 0.49866,0.19912 0.55858,0.31185 0.0591,0.11259 -0.4107,0.0504 -1.046867,-0.13626 -1.043292,-0.30461 -1.348982,-0.49249 -3.118302,-1.93603 -1.90522,-1.55405 -2.54876,-1.86382 -2.19036,-1.05558 0.0793,0.18122 1.47528,1.53753 3.10418,3.01543 2.830849,2.56727 3.028429,2.7157 4.397559,3.34576 1.69915,0.78223 2.68684,1.05673 3.80903,1.06016 1.39865,0 2.69636,-0.78816 2.93166,-1.7837 0.0992,-0.42667 -0.61459,-1.64698 -1.21736,-2.17437 z m -9.951689,-7.63819 c 0.0476,0.0504 0.0965,0.11109 0.14401,0.181 0.19508,0.28373 0.19079,0.48775 -0.0179,0.7129 -0.15339,0.17347 -0.3528,0.31959 -0.44711,0.32533 -0.38476,0.0247 -0.66945,-0.46431 -0.53165,-0.91673 0.1663,-0.54235 0.50689,-0.65273 0.84253,-0.30192 z m 9.909069,10.38969 c 0.0179,0.0179 0.0179,0.0221 0,0.0326 -0.26425,0.29885 -1.22271,0.55619 -2.0507,0.55365 -0.7577,0 -1.21231,-0.15512 -2.44161,-0.82267 -0.18109,-0.0978 -0.51522,-0.32648 -0.74432,-0.5133 -0.56562,-0.46136 -0.19547,-0.44698 1.27148,0.0533 0.66586,0.22759 1.86161,0.44935 2.65431,0.49559 0.69408,0.04 1.2319,0.12739 1.30895,0.20089 z m -1.39778,-0.99211 -0.54651,-0.0504 c -0.30166,-0.0282 -0.67879,-0.0326 -0.83792,-0.0179 -0.34883,0.0459 -0.82424,-0.31927 -0.65923,-0.50651 0.16812,-0.19009 0.99749,-0.037 1.56341,0.28946 l 0.48025,0.28017 z m -11.902169,-4.17673 c -0.16812,-0.14667 -0.19979,-0.0533 -0.207,0.1736 0,0.19467 0.0647,0.42162 0.16057,0.50523 0.0936,0.0829 0.26998,0.39491 0.38562,0.69669 0.11525,0.30134 0.48096,0.80103 0.81301,1.10458 0.33192,0.30387 0.67953,0.71322 0.77269,0.90994 0.16812,0.35776 0.16812,0.35776 -0.12237,0.13629 -0.65029,-0.49777 -2.45515,-2.2096 -2.69376,-2.55375 -0.53956,-0.77737 -0.31824,0.11259 0.28943,1.15735 1.03637,1.78545 0.27466,1.59357 -0.96118,-0.24239 -0.74979,-1.11421 -0.71886,-1.09231 -0.82482,-0.64504 -0.12236,0.51394 0.70326,2.56564 2.05195,5.11718 1.39852,2.64621 1.44143,2.76575 1.74773,4.56043 0.13674,0.79953 0.26458,1.45789 0.28402,1.46366 0.0218,0 0.23652,0.0993 0.47996,0.21157 0.87132,0.39853 1.29726,0.39776 2.08004,-0.0176 0.76305,-0.39984 0.81243,-0.45527 1.201962,-1.38667 0.524727,-1.25627 0.517237,-2.87136 -0.0179,-4.20071 -0.505582,-1.25358 -1.159912,-2.1859 -2.537842,-3.61388 -0.55695,-0.57751 -1.39762,-1.54119 -1.8675,-2.14239 -0.55855,-0.71492 -0.86658,-1.09462 -1.03461,-1.23981 z m -2.00417,-1.74706 c 0.21673,0.23463 0.0179,0.51138 -0.55496,0.72273 -0.31463,0.11705 -0.3954,0.077 -0.43933,-0.20632 -0.0793,-0.50568 0.46325,-0.88519 0.87564,-0.61366 0.0476,0.0325 0.0865,0.0637 0.11807,0.0978 z m -1.9091,2.95978 c -0.0179,-0.0179 -0.0179,-0.0179 -0.0253,-0.0179 -0.23906,0.0179 -0.11525,0.60236 0.48124,2.31275 0.27431,0.78489 0.42364,1.5123 0.3301,1.61775 -0.2275,0.25734 -0.39872,0.0815 -0.73135,-0.75953 -0.43792,-1.10694 -0.92864,-2.06252 -0.96121,-1.87246 -0.0179,0.0963 0.10372,0.70474 0.26499,1.35602 0.28511,1.14323 0.26026,1.56415 -0.0648,1.27597 -0.27072,-0.23909 -1.309939,-2.86813 -1.188279,-3.00532 0.0633,-0.0726 -0.0179,-0.23626 -0.16057,-0.36858 -0.14977,-0.13184 -0.33368,-0.17171 -0.41153,-0.083 -0.18721,0.21171 0.0179,2.20371 0.37019,3.7 0.15698,0.65484 0.31181,2.32444 0.34668,3.7096 0.0324,1.3852 0.14981,2.80136 0.25526,3.14369 0.20376,0.65926 0.4343,0.90328 1.291659,1.36089 1.26402,0.67467 2.38675,0.34092 3.26009,-0.97081 1.08216,-1.62589 1.05667,-3.0074 -0.0849,-4.99374 -0.29449,-0.51304 -1.04876,-2.16576 -1.67703,-3.67943 -0.58893,-1.41905 -1.14736,-2.59286 -1.29569,-2.72899 z m 8.07997,9.00977 c 0.28405,0.25052 0.0253,0.4259 -0.53264,0.36324 -0.30524,-0.0356 -0.46597,-0.12592 -0.41713,-0.23973 0.10651,-0.24978 0.71812,-0.32872 0.95022,-0.12444 z M 86.238002,241.74555 c 0.20629,0.24369 0.13674,0.68385 -0.13242,0.70041 -0.189,0.0179 -0.18685,0.0179 -0.36186,-0.31969 -0.19947,-0.38194 0.13674,-0.69791 0.44884,-0.42226 0.0179,0.0179 0.0323,0.0247 0.0461,0.0414 z m 12.621149,11.87562 c 0.11939,0.10516 -0.55557,0.38101 -1.07956,0.44147 -0.53742,0.0637 -1.28807,-0.37823 -1.06875,-0.62608 0.0979,-0.11109 1.9987,0.0519 2.14831,0.18474 z m -12.274249,-9.13626 c -0.0865,-0.0741 -0.0735,0.75424 0.0324,1.84563 0.17927,1.89629 0.16809,1.95745 -0.17353,1.29463 -0.19656,-0.38149 -0.41415,-0.93863 -0.48297,-1.23789 -0.26637,-1.15155 -0.32975,-1.07985 -0.19189,0.21715 0.26785,2.5234 -0.46536,1.2972 -0.82639,-1.38174 -0.0849,-0.62964 -0.21167,-1.14195 -0.28366,-1.13733 -0.0705,0 -0.18865,0.69349 -0.26352,1.53346 -0.22682,2.56163 -0.50744,3.94856 -1.205,6.00753 -0.36776,1.08459 -0.67073,2.10831 -0.67592,2.27569 0,0.16816 0.17712,0.58414 0.4035,0.92477 0.22534,0.34086 0.45748,0.71018 0.51752,0.8213 0.17171,0.31437 1.41306,0.43363 2.15824,0.20847 1.64113,-0.49645 2.22462,-2.32713 1.94484,-6.0895 -0.15151,-2.03197 -0.6991,-5.07034 -0.95154,-5.28217 z m -5.39661,-2.78855 c 0.0253,0.0247 0.0403,0.0533 0.0431,0.08 0,0.077 -0.11083,0.19653 -0.2567,0.27364 -0.29483,0.1533 -0.68715,-0.10372 -0.6337,-0.41572 0.0324,-0.19038 0.67834,-0.11263 0.84928,0.0607 z m 2.14616,2.94188 -0.16995,0.81966 c -0.73608,3.46802 -0.94663,3.84993 -0.82767,1.52034 0.0776,-1.53481 0.0218,-2.55747 -0.13097,-2.38263 -0.0504,0.0577 -0.11231,0.48352 -0.13822,0.94632 -0.0633,1.1114 -0.43231,2.50092 -0.72417,2.72566 -0.15694,0.11996 -0.20953,-0.23188 -0.15509,-1.06122 0.0921,-1.37764 -0.0179,-2.98607 -0.17353,-2.55705 -0.0562,0.15128 -0.32254,0.98064 -0.598,1.84415 -0.27579,0.86386 -0.90764,2.27006 -1.40429,3.12592 -0.64655,1.11495 -0.88243,1.6979 -0.83071,2.04756 0.0776,0.5271 0.50123,0.95007 1.34725,1.34962 0.77989,0.3683 1.20237,0.23316 1.97346,-0.62961 0.59025,-0.66003 0.76264,-1.06935 1.29038,-3.01406 0.38031,-1.40313 0.60088,-2.71483 0.58029,-3.48934 l -0.039,-1.24532 z m 10.094239,9.1588 -0.56633,0.66692 c -0.67509,0.8009 -1.11714,0.99201 -1.95624,0.84176 -0.51839,-0.0918 -0.70342,-0.2167 -1.04684,-0.71998 -0.588389,-0.86264 -0.33407,-0.96233 0.52256,-0.20517 0.88371,0.78044 1.28922,0.77259 2.31678,-0.0253 l 0.73007,-0.5603 z m -1.72724,-0.20668 c 0.0323,0.0224 0.0533,0.0682 0.0561,0.13184 0,0.0889 -0.13543,0.22653 -0.31066,0.30931 -0.30781,0.14373 -0.31645,0.13633 -0.16236,-0.15124 0.12963,-0.24444 0.32219,-0.35924 0.41672,-0.29157 z m -5.981559,0.31037 c 0.12237,0.16412 -0.32253,0.22605 -0.73163,0.0815 -0.53985,-0.19083 -0.63934,-0.28014 -0.49463,-0.44445 0.11941,-0.13482 0.91436,0.0889 1.19229,0.33275 0.0179,0.0176 0.0253,0.0176 0.036,0.0282 z m 0.15698,0.72248 c 0.0179,0.0176 0.0179,0.0253 0.0179,0.0355 0.0179,0.26327 -1.01302,0.52829 -1.53314,0.3969 -0.48557,-0.12297 -1.01908,-0.68104 -1.05017,-1.10192 -0.0253,-0.3594 0.40634,-0.37528 0.79904,-0.0282 0.20159,0.17703 0.68283,0.38399 1.07018,0.45274 0.33948,0.0607 0.62955,0.16428 0.69968,0.24636 z m -4.64967,-3.72027 c 0.2419,0.2135 -0.17716,0.52755 -0.49236,0.36846 -0.51061,-0.25808 -0.66455,-0.41422 -0.54517,-0.54994 0.12669,-0.14371 0.80465,-0.0253 1.03753,0.18103 z m -0.50677,1.17455 c 0.0922,0.08 0.0849,0.14369 0.0179,0.22025 -0.0878,0.10078 -0.3823,0.15868 -0.65216,0.1304 -0.5557,-0.0637 -0.86242,-0.28949 -0.99099,-0.73144 -0.11659,-0.40099 0.0403,-0.39183 1.00121,0.0504 0.33515,0.15329 0.53049,0.25051 0.62423,0.33153 z m -4.51678,-3.58814 c 0.0778,0.0933 0.13674,0.47836 0.27757,1.42766 0.0632,0.42533 0.036,0.70592 -0.0633,0.61971 -0.30096,-0.26563 -0.59759,-1.73495 -0.39543,-1.96369 0.0791,-0.0903 0.13245,-0.14075 0.17927,-0.083 z"
         id="path9180-5-8"
         style="display:inline;fill:#000000;stroke-width:0.26458332;enable-background:new"
         inkscape:connector-curvature="0" />
    </g>
    <flowRoot
       transform="matrix(0.30512667,0,0,0.30512667,70.013421,61.601949)"
       style="font-style:normal;font-variant:normal;font-weight:normal;font-stretch:normal;font-size:40px;line-height:15.10000038px;font-family:'Nimbus Mono L';-inkscape-font-specification:'Nimbus Mono L';letter-spacing:0px;word-spacing:0px;fill:none;stroke:#000000;stroke-width:1px;stroke-linecap:butt;stroke-linejoin:miter;stroke-opacity:1"
       id="flowRoot863"
       xml:space="preserve"><flowRegion
         id="flowRegion859"><rect
           y="299.4151"
           x="-88.571426"
           height="248.57143"
           width="868.57141"
           id="rect857" /></flowRegion><flowPara
         style="font-style:normal;font-variant:normal;font-weight:normal;font-stretch:normal;font-family:Multicolore;-inkscape-font-specification:Multicolore;fill:#000000"
         id="flowPara861">cmo usarla?</flowPara></flowRoot>    <flowRoot
       xml:space="preserve"
       id="flowRoot871"
       style="font-style:normal;font-variant:normal;font-weight:normal;font-stretch:normal;font-size:40px;line-height:56.28516388px;font-family:'Nimbus Mono L';-inkscape-font-specification:'Nimbus Mono L';letter-spacing:0px;word-spacing:0px;fill:none;stroke:#000000;stroke-width:1px;stroke-linecap:butt;stroke-linejoin:miter;stroke-opacity:1"
       transform="matrix(0.42401675,0,0,0.42401675,80.477473,44.121866)"><flowRegion
         id="flowRegion867"
         style="line-height:56.28516388px"><rect
           id="rect865"
           width="868.57141"
           height="248.57143"
           x="-88.571426"
           y="299.4151"
           style="line-height:56.28516388px" /></flowRegion><flowPara
         id="flowPara869"
         style="font-style:normal;font-variant:normal;font-weight:normal;font-stretch:normal;line-height:56.28516388px;font-family:Multicolore;-inkscape-font-specification:Multicolore;fill:#000000">wifi: bibliobox</flowPara><flowPara
         style="font-style:normal;font-variant:normal;font-weight:normal;font-stretch:normal;line-height:56.28516388px;font-family:Multicolore;-inkscape-font-specification:Multicolore;fill:#000000"
         id="flowPara873">contrasea: <flowSpan
   style="font-style:normal;font-variant:normal;font-weight:normal;font-stretch:normal;font-family:ZXX;-inkscape-font-specification:ZXX"
   id="flowSpan875">bibliobox</flowSpan> </flowPara></flowRoot>    <flowRoot
       xml:space="preserve"
       id="flowRoot883"
       style="font-style:normal;font-variant:normal;font-weight:normal;font-stretch:normal;font-size:40px;line-height:15.10000038px;font-family:'Nimbus Mono L';-inkscape-font-specification:'Nimbus Mono L';letter-spacing:0px;word-spacing:0px;fill:none;stroke:#000000;stroke-width:1px;stroke-linecap:butt;stroke-linejoin:miter;stroke-opacity:1"
       transform="matrix(0.30512667,0,0,0.30512667,70.013421,142.86683)"><flowRegion
         id="flowRegion879"><rect
           id="rect877"
           width="868.57141"
           height="248.57143"
           x="-88.571426"
           y="299.4151" /></flowRegion><flowPara
         id="flowPara881"
         style="font-style:normal;font-variant:normal;font-weight:normal;font-stretch:normal;font-family:Multicolore;-inkscape-font-specification:Multicolore;fill:#000000">sac los datos mviles</flowPara></flowRoot>    <flowRoot
       transform="matrix(0.30512667,0,0,0.30512667,70.013421,174.99481)"
       style="font-style:normal;font-variant:normal;font-weight:normal;font-stretch:normal;font-size:40px;line-height:15.10000038px;font-family:'Nimbus Mono L';-inkscape-font-specification:'Nimbus Mono L';letter-spacing:0px;word-spacing:0px;fill:none;stroke:#000000;stroke-width:1px;stroke-linecap:butt;stroke-linejoin:miter;stroke-opacity:1"
       id="flowRoot891"
       xml:space="preserve"><flowRegion
         id="flowRegion887"><rect
           y="299.4151"
           x="-88.571426"
           height="248.57143"
           width="868.57141"
           id="rect885" /></flowRegion><flowPara
         style="font-style:normal;font-variant:normal;font-weight:normal;font-stretch:normal;font-family:Multicolore;-inkscape-font-specification:Multicolore;fill:#000000"
         id="flowPara889">y entras a: biblio.box </flowPara></flowRoot>    <rect
       style="opacity:1;fill:none;fill-opacity:1;fill-rule:nonzero;stroke:#000000;stroke-width:1.01999998;stroke-linecap:round;stroke-linejoin:round;stroke-miterlimit:4;stroke-dasharray:none;stroke-dashoffset:0;stroke-opacity:1;paint-order:normal"
       id="rect893"
       width="160.2619"
       height="18.520834"
       x="40.074692"
       y="258.8244" />
    <flowRoot
       xml:space="preserve"
       id="flowRoot895"
       style="font-style:normal;font-variant:normal;font-weight:normal;font-stretch:normal;font-size:40px;line-height:15.10000038px;font-family:'Nimbus Mono L';-inkscape-font-specification:'Nimbus Mono L';letter-spacing:0px;word-spacing:0px;fill:none;stroke:#000000;stroke-width:1px;stroke-linecap:butt;stroke-linejoin:miter;stroke-opacity:1"
       transform="matrix(0.56295339,0,0,0.56295339,42.672917,-229.1827)"><flowRegion
         id="flowRegion897"><rect
           id="rect899"
           width="282.84271"
           height="173.74623"
           x="-52.527931"
           y="747.23376" /></flowRegion><flowPara
         id="flowPara901"
         style="font-style:normal;font-variant:normal;font-weight:normal;font-stretch:normal;font-family:Multicolore;-inkscape-font-specification:Multicolore;fill:#000000">1.</flowPara></flowRoot>    <flowRoot
       transform="matrix(0.56295339,0,0,0.56295339,42.672917,-192.1054)"
       style="font-style:normal;font-variant:normal;font-weight:normal;font-stretch:normal;font-size:40px;line-height:15.10000038px;font-family:'Nimbus Mono L';-inkscape-font-specification:'Nimbus Mono L';letter-spacing:0px;word-spacing:0px;fill:none;stroke:#000000;stroke-width:1px;stroke-linecap:butt;stroke-linejoin:miter;stroke-opacity:1"
       id="flowRoot909"
       xml:space="preserve"><flowRegion
         id="flowRegion905"><rect
           y="747.23376"
           x="-52.527931"
           height="173.74623"
           width="282.84271"
           id="rect903" /></flowRegion><flowPara
         style="font-style:normal;font-variant:normal;font-weight:normal;font-stretch:normal;font-family:Multicolore;-inkscape-font-specification:Multicolore;fill:#000000"
         id="flowPara907">2.</flowPara></flowRoot>    <flowRoot
       xml:space="preserve"
       id="flowRoot917"
       style="font-style:normal;font-variant:normal;font-weight:normal;font-stretch:normal;font-size:40px;line-height:15.10000038px;font-family:'Nimbus Mono L';-inkscape-font-specification:'Nimbus Mono L';letter-spacing:0px;word-spacing:0px;fill:none;stroke:#000000;stroke-width:1px;stroke-linecap:butt;stroke-linejoin:miter;stroke-opacity:1"
       transform="matrix(0.56295339,0,0,0.56295339,42.672917,-153.43008)"><flowRegion
         id="flowRegion913"><rect
           id="rect911"
           width="282.84271"
           height="173.74623"
           x="-52.527931"
           y="747.23376" /></flowRegion><flowPara
         id="flowPara915"
         style="font-style:normal;font-variant:normal;font-weight:normal;font-stretch:normal;font-family:Multicolore;-inkscape-font-specification:Multicolore;fill:#000000">3.</flowPara></flowRoot>  </g>
</svg>
